<?xml version="1.0" encoding="UTF-8"?>
<svg xmlns="http://www.w3.org/2000/svg" viewBox="0 0 291.84 289.77">
  <defs>
    <style>
      .cls-1 {
        fill: #009c4d;
      }

      .cls-2 {
        fill: #9f2a90;
      }

      .cls-3 {
        isolation: isolate;
      }

      .cls-4 {
        fill: #00a8d5;
      }

      .cls-5 {
        fill: #f05576;
      }

      .cls-6 {
        fill: #d2b02a;
      }

      .cls-7 {
        fill: #1c468a;
      }

      .cls-8 {
        opacity: .2;
      }

      .cls-8, .cls-9 {
        fill: #231f20;
        mix-blend-mode: multiply;
      }

      .cls-9 {
        opacity: .3;
      }
    </style>
  </defs>
  <g class="cls-3">
    <g id="Layer_1" data-name="Layer 1">
      <g>
        <g>
          <path class="cls-7" d="M171.21,73.85c1.91-3.92,2.99-8.32,2.99-12.97,0-16.33-13.24-29.57-29.57-29.57s-29.57,13.24-29.57,29.57c0,4.72,1.11,9.19,3.08,13.15,7.45-5.54,16.67-8.81,26.66-8.81s19,3.21,26.41,8.63Z"/>
          <path class="cls-4" d="M114.95,76.64c-2.88-1.65-6.21-2.59-9.76-2.59-10.87,0-19.69,8.81-19.69,19.69,0,9.14,6.23,16.82,14.67,19.04-.06-.93-.1-1.87-.1-2.82,0-13.23,5.75-25.12,14.88-33.31Z"/>
          <path class="cls-6" d="M189.54,109.95c0,.89-.03,1.78-.09,2.66,8.15-2.41,14.1-9.95,14.1-18.88,0-10.87-8.81-19.69-19.69-19.69-3.42,0-6.63.87-9.43,2.4,9.26,8.2,15.1,20.16,15.1,33.5Z"/>
          <path class="cls-5" d="M188.83,117.85c-3.35,18.82-18.46,33.56-37.47,36.35,4.47,9.08,13.82,15.33,24.63,15.33,15.15,0,27.44-12.28,27.44-27.44,0-10.51-5.91-19.64-14.59-24.25Z"/>
          <path class="cls-2" d="M100.72,117.53c-9.02,4.49-15.22,13.8-15.22,24.57,0,15.15,12.28,27.44,27.44,27.44,10.85,0,20.22-6.3,24.68-15.43-18.82-3.04-33.69-17.81-36.89-36.57Z"/>
          <g>
            <path class="cls-1" d="M175.98,114.66c4.64,0,9.01,1.16,12.84,3.19.31-1.71.52-3.46.62-5.24-1.77.52-3.64.81-5.58.81-10.87,0-19.69-8.81-19.69-19.69,0-7.45,4.14-13.94,10.25-17.28-1.03-.92-2.11-1.78-3.22-2.6-4.81,9.83-14.9,16.6-26.58,16.6s-21.65-6.69-26.49-16.42c-1.1.82-2.17,1.69-3.19,2.61,5.93,3.39,9.92,9.77,9.92,17.09,0,10.87-8.81,19.69-19.69,19.69-1.74,0-3.42-.23-5.02-.65.1,1.61.29,3.2.55,4.76,3.68-1.83,7.83-2.87,12.22-2.87,15.15,0,27.44,12.28,27.44,27.44,0,4.31-.99,8.38-2.76,12,2.34.38,4.74.58,7.19.58,2.23,0,4.41-.17,6.55-.48-1.8-3.65-2.81-7.76-2.81-12.1,0-15.15,12.28-27.44,27.44-27.44Z"/>
            <path class="cls-8" d="M175.98,114.66c4.64,0,9.01,1.16,12.84,3.19.31-1.71.52-3.46.62-5.24-1.77.52-3.64.81-5.58.81-10.87,0-19.69-8.81-19.69-19.69,0-7.45,4.14-13.94,10.25-17.28-1.03-.92-2.11-1.78-3.22-2.6-4.81,9.83-14.9,16.6-26.58,16.6s-21.65-6.69-26.49-16.42c-1.1.82-2.17,1.69-3.19,2.61,5.93,3.39,9.92,9.77,9.92,17.09,0,10.87-8.81,19.69-19.69,19.69-1.74,0-3.42-.23-5.02-.65.1,1.61.29,3.2.55,4.76,3.68-1.83,7.83-2.87,12.22-2.87,15.15,0,27.44,12.28,27.44,27.44,0,4.31-.99,8.38-2.76,12,2.34.38,4.74.58,7.19.58,2.23,0,4.41-.17,6.55-.48-1.8-3.65-2.81-7.76-2.81-12.1,0-15.15,12.28-27.44,27.44-27.44Z"/>
          </g>
          <g>
            <path class="cls-7" d="M144.63,90.45c11.68,0,21.77-6.77,26.58-16.6-7.4-5.42-16.53-8.63-26.41-8.63s-19.22,3.28-26.66,8.81c4.84,9.73,14.88,16.42,26.49,16.42Z"/>
            <path class="cls-9" d="M144.63,90.45c11.68,0,21.77-6.77,26.58-16.6-7.4-5.42-16.53-8.63-26.41-8.63s-19.22,3.28-26.66,8.81c4.84,9.73,14.88,16.42,26.49,16.42Z"/>
          </g>
          <g>
            <path class="cls-1" d="M124.88,93.73c0-7.32-4-13.7-9.92-17.09-9.13,8.19-14.88,20.08-14.88,33.31,0,.95.04,1.89.1,2.82,1.6.42,3.28.65,5.02.65,10.87,0,19.69-8.81,19.69-19.69Z"/>
            <path class="cls-9" d="M124.88,93.73c0-7.32-4-13.7-9.92-17.09-9.13,8.19-14.88,20.08-14.88,33.31,0,.95.04,1.89.1,2.82,1.6.42,3.28.65,5.02.65,10.87,0,19.69-8.81,19.69-19.69Z"/>
          </g>
          <g>
            <path class="cls-6" d="M164.18,93.73c0,10.87,8.81,19.69,19.69,19.69,1.94,0,3.81-.29,5.58-.81.05-.88.09-1.77.09-2.66,0-13.34-5.84-25.3-15.1-33.5-6.11,3.34-10.25,9.83-10.25,17.28Z"/>
            <path class="cls-9" d="M164.18,93.73c0,10.87,8.81,19.69,19.69,19.69,1.94,0,3.81-.29,5.58-.81.05-.88.09-1.77.09-2.66,0-13.34-5.84-25.3-15.1-33.5-6.11,3.34-10.25,9.83-10.25,17.28Z"/>
          </g>
          <g>
            <path class="cls-5" d="M188.83,117.85c-3.83-2.03-8.2-3.19-12.84-3.19-15.15,0-27.44,12.28-27.44,27.44,0,4.35,1.01,8.45,2.81,12.1,19.01-2.79,34.11-17.53,37.47-36.35Z"/>
            <path class="cls-9" d="M188.83,117.85c-3.83-2.03-8.2-3.19-12.84-3.19-15.15,0-27.44,12.28-27.44,27.44,0,4.35,1.01,8.45,2.81,12.1,19.01-2.79,34.11-17.53,37.47-36.35Z"/>
          </g>
          <g>
            <path class="cls-2" d="M112.94,114.66c-4.39,0-8.54,1.04-12.22,2.87,3.2,18.76,18.08,33.53,36.89,36.57,1.77-3.63,2.76-7.7,2.76-12,0-15.15-12.28-27.44-27.44-27.44Z"/>
            <path class="cls-9" d="M112.94,114.66c-4.39,0-8.54,1.04-12.22,2.87,3.2,18.76,18.08,33.53,36.89,36.57,1.77-3.63,2.76-7.7,2.76-12,0-15.15-12.28-27.44-27.44-27.44Z"/>
          </g>
        </g>
        <g>
          <path class="cls-7" d="M108.67,256.66c-.5,0-.78,0-1.05,0-5.46,0-10.92-.02-16.37.02-.81,0-1.26-.28-1.67-.91-1.45-2.23-2.92-4.46-4.4-6.67-2.56-3.82-5.14-7.63-7.69-11.45-1.72-2.56-3.41-5.14-5.11-7.7-.76-1.15-1.52-2.29-2.28-3.44-.29-.44-.59-.31-.9,0-1.7,1.72-3.4,3.44-5.1,5.16-.87.89-1.73,1.79-2.62,2.66-.36.35-.52.71-.52,1.21.02,6.75,0,13.51.03,20.26,0,.68-.21.86-.87.86-4.35-.02-8.7-.01-13.04-.01-.91,0-.9,0-.9-.94,0-22.02,0-44.05-.01-66.07,0-.62.16-.79.77-.79,4.42.02,8.83.02,13.25,0,.59,0,.81.15.8.78-.02,8.81-.02,17.63-.02,26.44,0,.23.14.45.21.68.22-.11.49-.16.64-.32,4.05-4.31,8.08-8.64,12.13-12.95,4.23-4.5,8.47-8.97,12.71-13.46.19-.2.37-.41.54-.63.31-.38.69-.53,1.2-.53,5.62.02,11.24.01,16.86.01.19,0,.39.03.58.05.05.08.11.15.16.23-.9.84-1.83,1.64-2.7,2.51-3.62,3.64-7.23,7.29-10.84,10.94-3.64,3.69-7.28,7.38-10.92,11.06-.48.49-.97.98-1.47,1.45-.32.3-.4.55-.11.95,1.65,2.29,3.29,4.59,4.92,6.9,1.47,2.09,2.92,4.19,4.39,6.27,1.9,2.69,3.81,5.36,5.7,8.05,2.06,2.91,4.09,5.83,6.15,8.74,2.05,2.89,4.11,5.77,6.16,8.65.42.59.83,1.19,1.38,1.97Z"/>
          <path class="cls-7" d="M216.79,258.43c-1.25,0-2.5-.02-3.75,0-1.86.04-3.67-.25-5.49-.62-2.63-.53-5.14-1.39-7.52-2.62-3.18-1.64-5.88-3.87-7.91-6.82-1.45-2.1-2.32-4.46-2.84-6.97-.47-2.22-.54-4.47-.29-6.69.46-4.18,2.15-7.81,5.33-10.67,2.49-2.24,5.34-3.84,8.52-4.81,3.48-1.06,6.99-2,10.48-3,1.66-.47,3.31-.96,4.96-1.45,2.07-.62,4.14-1.2,6.19-1.88,1.83-.61,3.45-1.57,4.3-3.42.94-2.03.77-4.06-.28-5.99-1.23-2.26-3.32-3.32-5.71-3.96-2.56-.68-5.14-.58-7.7-.2-2.65.4-5.13,1.27-7.04,3.31-1.53,1.63-2.3,3.59-2.54,5.77-.08.74-.36.93-1.09.92-4.12-.04-8.23-.02-12.35-.02-.89,0-.89,0-.86-.89.09-2.77.6-5.46,1.72-8,1.72-3.87,4.58-6.71,8.22-8.81,2.39-1.38,4.95-2.39,7.64-2.93,4.61-.94,9.26-1.46,13.98-.72,2.31.37,4.59.8,6.77,1.62,2.4.9,4.65,2.09,6.7,3.66,1.98,1.51,3.68,3.27,4.92,5.44,1,1.74,1.82,3.57,2.02,5.6.17,1.74.39,3.5.31,5.24-.22,5.26-2.61,9.38-6.88,12.45-2.38,1.71-5.05,2.69-7.83,3.49-2.06.59-4.09,1.26-6.15,1.86-1.92.56-3.85,1.07-5.77,1.63-3.13.92-6.33,1.65-9.18,3.33-1.67.98-3.18,2.13-4,3.96-.64,1.43-.69,2.89-.31,4.44.69,2.77,2.6,4.28,5.07,5.29,3.71,1.52,7.55,1.74,11.49,1.2,2.67-.37,5.16-1.19,7.3-2.84,2.32-1.78,3.75-4.14,4.18-7.07.09-.59.21-1.18.22-1.78,0-.57.2-.75.77-.75,3.91.02,7.82.01,11.73.01,1.53,0,1.47,0,1.55,1.52.12,2.33-.3,4.58-1.05,6.73-1.14,3.28-3.02,6.12-5.63,8.46-1.99,1.79-4.19,3.24-6.62,4.31-1.55.68-3.19,1.16-4.81,1.69-3.51,1.15-7.15,1.03-10.77.97Z"/>
          <path class="cls-7" d="M181.1,222.49c0,11.06,0,22.12.01,33.17,0,.6-.22.77-.77.77-3.7,0-7.4,0-11.1,0-.56,0-.82-.11-.77-.8.09-1.27.03-2.54.04-3.82,0-.3.06-.6.04-.9-.01-.2-.1-.39-.16-.59-.2.11-.46.18-.59.34-.51.65-.94,1.36-1.48,1.98-2.02,2.35-4.63,3.71-7.6,4.49-2.65.7-5.36.79-8.03.51-5.43-.56-9.95-2.94-13.39-7.25-1.95-2.45-3.48-5.16-4.37-8.14-.65-2.17-1.05-4.44-1.34-6.7-.25-1.98-.3-4.01-.23-6.01.09-2.65.53-5.26,1.33-7.82.68-2.17,1.58-4.22,2.81-6.11,1.79-2.76,3.98-5.14,6.86-6.85,1.68-1,3.45-1.78,5.32-2.17,3.06-.64,6.17-.73,9.29-.19,2.48.43,4.72,1.33,6.74,2.8,1.35.98,2.52,2.14,3.4,3.57.11.18.39.25.59.37.08-.19.23-.39.23-.58,0-7.7,0-15.41-.03-23.11,0-.65.15-.88.84-.87,3.86.03,7.72.02,11.59,0,.53,0,.78.1.78.72-.02,11.06-.01,22.12-.01,33.17h0ZM144.6,231.52c-.12,4.28.76,8.11,3.08,11.53,2.08,3.06,4.91,4.79,8.68,4.72,1-.02,2.01-.13,3.01-.28,3.16-.47,5.32-2.31,6.83-5.03,1.32-2.39,1.8-5.01,2.04-7.68.27-3.05.17-6.09-.53-9.09-.54-2.33-1.39-4.51-3.02-6.33-1.5-1.67-3.35-2.73-5.54-3.11-1.49-.26-3-.37-4.53-.09-1.4.26-2.74.61-3.95,1.35-2.87,1.77-4.37,4.53-5.28,7.63-.62,2.13-.9,4.34-.78,6.38Z"/>
          <path class="cls-7" d="M126.2,213.24c0,7.89,0,15.77.01,23.66,0,.66-.16.87-.84.86-3.81-.03-7.63-.02-11.45-.02-.98,0-.95,0-.95-.99.02-3.82,0-7.63,0-11.45,0-11.56,0-23.13,0-34.69,0-.3,0-.6,0-.9-.04-.95-.03-.97.9-.97,3.84,0,7.68.01,11.51-.01.65,0,.81.23.81.85-.02,7.89-.01,15.77-.01,23.66Z"/>
          <path class="cls-7" d="M119.63,245.65c1.94,0,3.88.02,5.82-.01.56,0,.76.15.76.74-.02,3.17-.02,6.33,0,9.5,0,.54-.16.72-.71.71-3.91-.02-7.81,0-11.72-.01-.82,0-.82-.06-.81-.88.02-3.1.02-6.19-.02-9.29,0-.59.15-.78.72-.77,1.99.02,3.98,0,5.96,0Z"/>
        </g>
      </g>
    </g>
  </g>
</svg>