<?xml version="1.0" encoding="UTF-8"?>
<svg xmlns="http://www.w3.org/2000/svg" xmlns:xlink="http://www.w3.org/1999/xlink" viewBox="0 0 477.38 260.33">
  <defs>
    <style>
      .cls-1 {
        fill: #bcbec0;
      }

      .cls-2 {
        fill: #231f20;
      }

      .cls-3 {
        fill: #fff;
      }
    </style>
    <symbol id="New_Symbol" data-name="New Symbol" viewBox="0 0 258.03 302.12">
      <g>
        <path class="cls-3" d="M129.61,74.11c-21.84,0-42,7.16-58.27,19.26-4.31-8.66-6.74-18.41-6.74-28.74C64.6,28.94,93.54,0,129.23,0s64.64,28.94,64.64,64.64c0,10.17-2.35,19.78-6.54,28.34-16.18-11.85-36.12-18.87-57.72-18.87ZM64.37,99.08c-6.29-3.6-13.57-5.67-21.34-5.67C19.26,93.41,0,112.68,0,136.44c0,19.97,13.61,36.76,32.06,41.61-.13-2.04-.21-4.09-.21-6.17,0-28.92,12.57-54.9,32.53-72.8ZM227.39,171.88c0,1.95-.07,3.89-.19,5.82,17.82-5.26,30.83-21.74,30.83-41.26,0-23.76-19.26-43.03-43.03-43.03-7.47,0-14.5,1.91-20.62,5.26,20.24,17.91,33.01,44.07,33.01,73.22ZM225.84,189.15c-7.33,41.13-40.35,73.35-81.9,79.45,9.78,19.85,30.2,33.52,53.82,33.52,33.12,0,59.97-26.85,59.97-59.97,0-22.98-12.93-42.93-31.9-53ZM33.27,188.45C13.55,198.27,0,218.62,0,242.15c0,33.12,26.85,59.97,59.97,59.97,23.71,0,44.2-13.76,53.94-33.73-41.12-6.64-73.64-38.93-80.64-79.94Z"/>
        <path class="cls-1" d="M71.34,93.38c16.27-12.1,36.44-19.26,58.27-19.26s41.54,7.01,57.72,18.87c-10.5,21.49-32.57,36.29-58.1,36.29s-47.31-14.62-57.89-35.89ZM86.06,136.44c0-16-8.73-29.94-21.69-37.36-19.96,17.9-32.53,43.88-32.53,72.8,0,2.07.09,4.13.21,6.17,3.5.92,7.18,1.42,10.97,1.42,23.76,0,43.03-19.26,43.03-43.03ZM171.97,136.44c0,23.76,19.26,43.03,43.03,43.03,4.24,0,8.33-.62,12.2-1.77.11-1.93.19-3.86.19-5.82,0-29.15-12.77-55.3-33.01-73.22-13.35,7.3-22.41,21.48-22.41,37.77ZM225.84,189.15c-8.38-4.45-17.93-6.97-28.07-6.97-33.12,0-59.97,26.85-59.97,59.97,0,9.5,2.22,18.47,6.15,26.46,41.54-6.1,74.56-38.33,81.9-79.45ZM59.97,182.17c-9.6,0-18.66,2.27-26.7,6.27,7,41,39.51,73.29,80.64,79.94,3.86-7.93,6.04-16.83,6.04-26.24,0-33.12-26.85-59.97-59.97-59.97Z"/>
      </g>
    </symbol>
    <symbol id="New_Symbol_1" data-name="New Symbol 1" viewBox="0 0 456.77 162.16">
      <g>
        <path class="cls-3" d="M143.11,158.04c-1.15,0-1.78,0-2.4,0-12.5,0-24.99-.05-37.49.05-1.84.01-2.89-.65-3.82-2.08-3.32-5.11-6.67-10.21-10.07-15.28-5.85-8.75-11.76-17.46-17.61-26.21-3.93-5.86-7.81-11.76-11.71-17.64-1.74-2.62-3.48-5.25-5.23-7.87-.67-1-1.35-.71-2.06,0-3.89,3.95-7.78,7.88-11.67,11.82-2,2.03-3.95,4.1-6,6.09-.82.8-1.18,1.62-1.18,2.78.04,15.46,0,30.93.06,46.39,0,1.55-.48,1.97-1.99,1.97-9.95-.06-19.91-.03-29.86-.03-2.08,0-2.06-.01-2.06-2.15C.04,105.47.04,55.05,0,4.64c0-1.41.37-1.81,1.76-1.81,10.11.05,20.23.05,30.34,0,1.35,0,1.85.34,1.84,1.78-.05,20.18-.05,40.35-.04,60.53,0,.52.31,1.03.48,1.55.49-.24,1.11-.36,1.46-.74,9.27-9.87,18.49-19.79,27.76-29.66,9.68-10.29,19.4-20.54,29.1-30.81.43-.46.84-.95,1.24-1.44.72-.88,1.59-1.21,2.76-1.21,12.87.04,25.73.02,38.6.03.45,0,.89.07,1.34.11.13.18.25.35.38.53-2.07,1.91-4.2,3.76-6.19,5.75-8.3,8.33-16.55,16.69-24.81,25.05-8.34,8.44-16.67,16.89-25.01,25.33-1.11,1.12-2.21,2.25-3.36,3.33-.72.68-.91,1.27-.25,2.17,3.79,5.24,7.53,10.52,11.26,15.8,3.37,4.77,6.68,9.59,10.05,14.36,4.34,6.15,8.72,12.28,13.06,18.43,4.71,6.66,9.37,13.35,14.09,20.01,4.68,6.62,9.4,13.2,14.1,19.81.96,1.35,1.91,2.71,3.17,4.5Z"/>
        <path class="cls-3" d="M390.62,162.09c-2.86,0-5.72-.06-8.58.01-4.26.1-8.4-.57-12.57-1.41-6.03-1.22-11.77-3.19-17.22-6-7.29-3.75-13.46-8.85-18.11-15.62-3.31-4.82-5.3-10.22-6.51-15.95-1.07-5.09-1.23-10.24-.66-15.32,1.06-9.56,4.93-17.88,12.21-24.43,5.69-5.12,12.22-8.79,19.51-11,7.96-2.42,16-4.57,24-6.86,3.79-1.09,7.58-2.2,11.36-3.33,4.73-1.41,9.48-2.74,14.17-4.3,4.19-1.39,7.89-3.59,9.85-7.83,2.15-4.66,1.76-9.3-.64-13.71-2.81-5.17-7.6-7.6-13.08-9.06-5.86-1.57-11.77-1.34-17.64-.45-6.06.92-11.75,2.91-16.13,7.58-3.49,3.73-5.27,8.22-5.83,13.21-.19,1.68-.83,2.13-2.49,2.11-9.42-.09-18.85-.04-28.27-.04-2.03,0-2.03-.01-1.96-2.04.21-6.34,1.36-12.5,3.94-18.31,3.94-8.87,10.48-15.36,18.81-20.17,5.48-3.16,11.34-5.46,17.48-6.71,10.55-2.15,21.19-3.35,32-1.64,5.28.84,10.5,1.82,15.51,3.7,5.49,2.06,10.64,4.79,15.33,8.37,4.54,3.46,8.42,7.5,11.26,12.44,2.29,3.98,4.18,8.17,4.62,12.82.38,3.99.89,8.01.72,11.99-.51,12.05-5.97,21.46-15.74,28.51-5.44,3.92-11.57,6.16-17.92,8-4.71,1.36-9.37,2.87-14.08,4.25-4.39,1.29-8.81,2.44-13.2,3.73-7.16,2.11-14.49,3.77-21.02,7.61-3.81,2.25-7.28,4.88-9.15,9.06-1.47,3.28-1.59,6.62-.71,10.17,1.57,6.35,5.96,9.8,11.62,12.11,8.49,3.47,17.28,3.99,26.29,2.74,6.11-.85,11.81-2.73,16.71-6.5,5.31-4.08,8.59-9.48,9.56-16.18.2-1.36.49-2.71.51-4.07.02-1.3.45-1.73,1.77-1.72,8.95.05,17.9.03,26.84.03,3.51,0,3.37,0,3.54,3.48.27,5.33-.69,10.49-2.41,15.42-2.61,7.5-6.9,14-12.89,19.37-4.56,4.09-9.59,7.43-15.15,9.88-3.55,1.56-7.31,2.65-11.01,3.86-8.04,2.62-16.36,2.36-24.66,2.23Z"/>
        <path class="cls-3" d="M308.93,79.83c0,25.31-.01,50.63.03,75.94,0,1.38-.51,1.76-1.76,1.75-8.47-.02-16.94-.02-25.41,0-1.28,0-1.87-.26-1.77-1.82.2-2.9.06-5.82.08-8.73,0-.69.13-1.37.1-2.06-.02-.46-.24-.9-.36-1.36-.46.26-1.04.41-1.34.79-1.17,1.48-2.16,3.11-3.39,4.54-4.63,5.38-10.61,8.48-17.4,10.27-6.07,1.6-12.26,1.81-18.39,1.18-12.42-1.29-22.79-6.72-30.65-16.59-4.46-5.6-7.96-11.8-10.01-18.63-1.49-4.97-2.41-10.17-3.06-15.33-.57-4.54-.68-9.19-.52-13.77.21-6.07,1.22-12.04,3.04-17.89,1.55-4.97,3.62-9.65,6.43-13.98,4.11-6.33,9.11-11.77,15.71-15.69,3.85-2.28,7.9-4.08,12.18-4.97,7.01-1.45,14.12-1.68,21.28-.44,5.67.98,10.8,3.05,15.42,6.4,3.08,2.24,5.77,4.89,7.79,8.17.25.41.89.58,1.35.86.18-.44.53-.88.53-1.32,0-17.63,0-35.27-.07-52.9,0-1.49.34-2.01,1.92-2,8.84.07,17.68.05,26.53.02,1.22,0,1.8.22,1.79,1.64-.04,25.31-.03,50.63-.03,75.94h-.02ZM225.37,100.49c-.27,9.81,1.74,18.57,7.05,26.39,4.75,7,11.24,10.96,19.88,10.8,2.3-.04,4.61-.3,6.88-.64,7.23-1.08,12.19-5.28,15.64-11.52,3.03-5.47,4.12-11.47,4.66-17.58.62-6.98.38-13.93-1.22-20.81-1.25-5.34-3.18-10.32-6.91-14.48-3.43-3.83-7.67-6.26-12.69-7.12-3.42-.59-6.86-.85-10.38-.21-3.21.59-6.28,1.4-9.04,3.1-6.56,4.04-10.01,10.38-12.1,17.47-1.43,4.87-2.07,9.93-1.79,14.6Z"/>
        <path class="cls-3" d="M183.25,58.65c0,18.05-.02,36.11.03,54.16,0,1.51-.37,1.99-1.93,1.97-8.73-.07-17.47-.04-26.2-.04-2.25,0-2.17,0-2.17-2.26.04-8.74.02-17.47.02-26.21,0-26.47,0-52.94,0-79.42,0-.69.02-1.38-.01-2.06-.09-2.18-.07-2.23,2.07-2.23,8.79,0,17.57.02,26.36-.03,1.49,0,1.86.52,1.86,1.94-.04,18.05-.03,36.11-.03,54.16Z"/>
        <path class="cls-3" d="M168.2,132.84c4.44,0,8.89.04,13.33-.02,1.29-.02,1.75.35,1.74,1.7-.06,7.25-.05,14.5,0,21.75,0,1.23-.36,1.64-1.63,1.63-8.94-.05-17.88-.02-26.82-.03-1.87,0-1.87-.13-1.86-2.01.04-7.09.05-14.18-.04-21.27-.02-1.36.33-1.78,1.64-1.77,4.55.05,9.1.02,13.65.02Z"/>
      </g>
    </symbol>
  </defs>
  <g id="Layer_2" data-name="Layer 2">
    <rect class="cls-2" y="-1.97" width="477.38" height="262.3"/>
  </g>
  <g id="Layer_1" data-name="Layer 1">
    <g>
      <path class="cls-3" d="M228.15,144.61v-28.88h3.63v28.88h-3.63Z"/>
      <path class="cls-3" d="M240.87,123.73v2.75h.08c1.62-2.15,3.82-3.23,6.62-3.23,2.21,0,3.93.58,5.17,1.74,1.24,1.16,1.86,2.81,1.86,4.97v14.66h-3.27v-14.38c0-1.35-.42-2.39-1.25-3.13-.83-.74-1.99-1.11-3.47-1.11-1.67,0-3.04.54-4.12,1.62-1.08,1.08-1.62,2.46-1.62,4.16v12.84h-3.27v-20.88h3.27Z"/>
      <path class="cls-3" d="M257.99,126.4v-2.67h3.03v-6.58h3.27v6.58h4.04v2.67h-4.04v13.57c0,1.29.7,1.94,2.1,1.94.59,0,1.17-.09,1.74-.28h.12v2.83c-.89.19-1.76.28-2.62.28-3.07,0-4.6-1.35-4.6-4.04v-14.3h-3.03Z"/>
      <path class="cls-3" d="M281.26,145.18c-3.1,0-5.55-1.04-7.37-3.13s-2.73-4.71-2.73-7.86.92-5.7,2.77-7.82,4.22-3.17,7.13-3.17c3.07,0,5.44,1.07,7.11,3.21,1.67,2.14,2.5,4.99,2.5,8.54h-16.16c.13,2.21.79,4.01,1.96,5.39,1.17,1.39,2.77,2.08,4.79,2.08,3.12,0,5.05-1.43,5.78-4.28h3.19c-.48,2.24-1.51,3.97-3.07,5.19-1.56,1.23-3.53,1.84-5.9,1.84ZM285.42,127.57c-1.05-1.18-2.5-1.78-4.36-1.78s-3.33.62-4.42,1.86c-1.09,1.24-1.77,2.85-2.04,4.85h12.56c-.11-2.1-.69-3.74-1.74-4.93Z"/>
      <path class="cls-3" d="M297.94,123.73v3.47h.08c.67-1.1,1.55-2,2.62-2.69s2.28-1.03,3.59-1.03c.49,0,.93.08,1.33.24v3.15h-.12c-.4-.13-.89-.2-1.45-.2-1.67,0-3.1.59-4.28,1.76-1.19,1.17-1.78,2.7-1.78,4.58v11.59h-3.27v-20.88h3.27Z"/>
      <path class="cls-3" d="M312.6,123.73v2.75h.08c1.62-2.15,3.82-3.23,6.62-3.23,2.21,0,3.93.58,5.17,1.74,1.24,1.16,1.86,2.81,1.86,4.97v14.66h-3.27v-14.38c0-1.35-.42-2.39-1.25-3.13-.83-.74-1.99-1.11-3.47-1.11-1.67,0-3.04.54-4.12,1.62-1.08,1.08-1.62,2.46-1.62,4.16v12.84h-3.27v-20.88h3.27Z"/>
      <path class="cls-3" d="M347.86,144.82c-2.07,0-3.27-1.04-3.59-3.11h-.04c-1.72,2.21-4.04,3.31-6.95,3.31-2.07,0-3.77-.5-5.09-1.5-1.32-1-1.98-2.44-1.98-4.32,0-.97.16-1.81.46-2.52.31-.71.71-1.29,1.19-1.74s1.15-.83,2-1.17c.85-.34,1.66-.59,2.44-.77.78-.17,1.78-.36,2.99-.54.78-.11,1.34-.2,1.68-.26.34-.07.77-.17,1.31-.32.54-.15.92-.32,1.13-.5.21-.19.42-.44.61-.77s.28-.7.28-1.13c0-1.18-.41-2.09-1.23-2.73-.82-.63-1.97-.95-3.45-.95-3.37,0-5.1,1.54-5.21,4.6h-3.15c.05-2.13.79-3.84,2.2-5.13,1.41-1.29,3.45-1.94,6.12-1.94,5.14,0,7.71,2.21,7.71,6.62v9.94c0,.92.15,1.56.46,1.94.31.38.9.47,1.76.28h.12v2.38c-.54.21-1.13.32-1.78.32ZM338.01,142.51c2.02,0,3.58-.58,4.69-1.76,1.1-1.17,1.66-2.46,1.66-3.86v-3.55c-1,.62-2.58,1.13-4.77,1.53-.81.16-1.44.29-1.9.38-.46.09-.98.26-1.58.49-.59.23-1.04.48-1.33.75-.3.27-.55.63-.77,1.07s-.32.96-.32,1.55c0,2.26,1.44,3.39,4.32,3.39Z"/>
      <path class="cls-3" d="M351.13,126.4v-2.67h3.03v-6.58h3.27v6.58h4.04v2.67h-4.04v13.57c0,1.29.7,1.94,2.1,1.94.59,0,1.17-.09,1.74-.28h.12v2.83c-.89.19-1.76.28-2.62.28-3.07,0-4.6-1.35-4.6-4.04v-14.3h-3.03Z"/>
      <path class="cls-3" d="M365.67,119.77v-4.04h3.27v4.04h-3.27ZM365.67,144.61v-20.88h3.27v20.88h-3.27Z"/>
      <path class="cls-3" d="M390.43,142.03c-1.83,2.1-4.27,3.15-7.31,3.15s-5.49-1.05-7.33-3.15-2.77-4.71-2.77-7.84.92-5.74,2.77-7.84,4.29-3.15,7.33-3.15,5.48,1.05,7.31,3.15,2.75,4.71,2.75,7.84-.92,5.74-2.75,7.84ZM378.13,140.11c1.17,1.55,2.83,2.32,4.99,2.32s3.81-.77,4.97-2.32c1.16-1.55,1.74-3.52,1.74-5.92s-.59-4.41-1.76-5.96c-1.17-1.55-2.82-2.32-4.95-2.32s-3.82.78-4.99,2.34c-1.17,1.56-1.76,3.54-1.76,5.94s.59,4.37,1.76,5.92Z"/>
      <path class="cls-3" d="M400.53,123.73v2.75h.08c1.62-2.15,3.82-3.23,6.62-3.23,2.21,0,3.93.58,5.17,1.74,1.24,1.16,1.86,2.81,1.86,4.97v14.66h-3.27v-14.38c0-1.35-.42-2.39-1.25-3.13-.83-.74-1.99-1.11-3.47-1.11-1.67,0-3.04.54-4.12,1.62-1.08,1.08-1.62,2.46-1.62,4.16v12.84h-3.27v-20.88h3.27Z"/>
      <path class="cls-3" d="M435.79,144.82c-2.07,0-3.27-1.04-3.59-3.11h-.04c-1.72,2.21-4.04,3.31-6.95,3.31-2.07,0-3.77-.5-5.09-1.5-1.32-1-1.98-2.44-1.98-4.32,0-.97.15-1.81.46-2.52.31-.71.71-1.29,1.19-1.74.48-.44,1.15-.83,2-1.17s1.66-.59,2.44-.77c.78-.17,1.78-.36,2.99-.54.78-.11,1.34-.2,1.68-.26s.77-.17,1.31-.32c.54-.15.92-.32,1.13-.5.21-.19.42-.44.61-.77s.28-.7.28-1.13c0-1.18-.41-2.09-1.23-2.73s-1.97-.95-3.45-.95c-3.37,0-5.1,1.54-5.21,4.6h-3.15c.05-2.13.79-3.84,2.2-5.13,1.41-1.29,3.45-1.94,6.12-1.94,5.14,0,7.71,2.21,7.71,6.62v9.94c0,.92.15,1.56.46,1.94.31.38.89.47,1.76.28h.12v2.38c-.54.21-1.13.32-1.78.32ZM425.94,142.51c2.02,0,3.58-.58,4.69-1.76,1.1-1.17,1.66-2.46,1.66-3.86v-3.55c-1,.62-2.58,1.13-4.77,1.53-.81.16-1.44.29-1.9.38-.46.09-.98.26-1.58.49-.59.23-1.04.48-1.33.75-.3.27-.55.63-.77,1.07-.22.44-.32.96-.32,1.55,0,2.26,1.44,3.39,4.32,3.39Z"/>
      <path class="cls-3" d="M440.92,144.61v-28.88h3.27v28.88h-3.27Z"/>
      <path class="cls-3" d="M227.58,184.22v-28.88h12.68c3.28,0,5.8.9,7.55,2.71,1.72,1.78,2.58,3.97,2.58,6.58,0,2.75-.86,4.96-2.58,6.62-1.72,1.67-4.08,2.5-7.07,2.5h-7.11v10.46h-6.06ZM233.64,160.43v8.56h6.06c1.51,0,2.67-.38,3.47-1.15.81-.77,1.21-1.82,1.21-3.17s-.4-2.39-1.21-3.13c-.81-.74-1.94-1.11-3.39-1.11h-6.14Z"/>
      <path class="cls-3" d="M258.96,163.5v3.31h.12c.65-1.21,1.36-2.11,2.14-2.69.78-.58,1.76-.87,2.95-.87.57,0,1,.05,1.29.16v4.81h-.12c-1.86-.19-3.35.22-4.48,1.21-1.13,1-1.7,2.56-1.7,4.69v10.1h-5.49v-20.72h5.29Z"/>
      <path class="cls-3" d="M277.78,184.83c-3.34,0-5.96-1.03-7.88-3.09-1.91-2.06-2.87-4.69-2.87-7.9s.96-5.69,2.87-7.78,4.36-3.13,7.35-3.13c3.26,0,5.78,1.13,7.55,3.39,1.78,2.26,2.67,5.29,2.67,9.09h-15.03c.21,1.64.77,2.92,1.66,3.82.89.9,2.1,1.35,3.63,1.35,2.02,0,3.35-.85,4-2.54h5.41c-.4,1.94-1.43,3.55-3.07,4.85-1.64,1.29-3.74,1.94-6.3,1.94ZM277.34,167.18c-2.67,0-4.27,1.48-4.81,4.44h9.21c-.08-1.32-.53-2.39-1.33-3.21-.81-.82-1.83-1.23-3.07-1.23Z"/>
      <path class="cls-3" d="M299.23,184.83c-2.96,0-5.28-.65-6.95-1.96-1.67-1.31-2.58-3.09-2.75-5.35h5.09c.35,2.29,1.86,3.43,4.52,3.43,1.21,0,2.15-.22,2.81-.65s.99-1.01.99-1.74c0-.27-.05-.51-.14-.73-.09-.21-.26-.41-.49-.59-.23-.17-.43-.32-.61-.42-.18-.11-.48-.21-.91-.32-.43-.11-.76-.19-.99-.24-.23-.05-.62-.13-1.17-.22-.55-.09-.94-.17-1.15-.22-1.13-.21-2.05-.44-2.77-.67-.71-.23-1.46-.57-2.24-1.01s-1.37-1.05-1.76-1.82c-.39-.77-.59-1.69-.59-2.77,0-2.15.79-3.8,2.36-4.93,1.58-1.13,3.6-1.7,6.08-1.7,2.67,0,4.76.61,6.28,1.84,1.52,1.23,2.39,2.9,2.61,5.03h-4.97c-.22-2.02-1.55-3.03-4-3.03-1.1,0-1.97.2-2.61.61s-.95.97-.95,1.7c0,.24.05.46.14.67.09.2.26.38.48.53.23.15.45.27.67.36.21.09.52.19.93.28.4.09.75.18,1.05.24.3.07.7.15,1.21.24.51.09.92.17,1.21.22.86.19,1.57.36,2.12.5s1.19.39,1.92.73c.73.34,1.3.71,1.72,1.13.42.42.78.98,1.09,1.7.31.71.46,1.54.46,2.48,0,2.05-.8,3.67-2.4,4.87-1.6,1.2-3.71,1.8-6.32,1.8Z"/>
      <path class="cls-3" d="M321.04,184.83c-3.21,0-5.78-1.04-7.71-3.11s-2.91-4.69-2.91-7.84.95-5.76,2.85-7.84c1.9-2.07,4.4-3.11,7.49-3.11,2.61,0,4.74.69,6.38,2.06,1.64,1.37,2.65,3.22,3.03,5.53h-5.37c-.19-.94-.62-1.71-1.29-2.3-.67-.59-1.51-.89-2.5-.89-1.62,0-2.85.58-3.72,1.74-.86,1.16-1.29,2.76-1.29,4.81s.42,3.62,1.25,4.79c.83,1.17,2.06,1.76,3.68,1.76,2.4,0,3.78-1.17,4.16-3.51h5.29c-.19,2.29-1.12,4.18-2.79,5.67-1.67,1.49-3.85,2.24-6.54,2.24Z"/>
      <path class="cls-3" d="M339.06,155.34v10.86h.12c.78-1.13,1.64-1.96,2.56-2.48.93-.53,2.08-.79,3.45-.79,2.13,0,3.85.72,5.17,2.16,1.32,1.44,1.98,3.31,1.98,5.59v13.53h-5.49v-12.72c0-1.13-.32-2.05-.95-2.75-.63-.7-1.51-1.05-2.65-1.05-1.21,0-2.21.44-3.01,1.33s-1.19,2.03-1.19,3.43v11.75h-5.49v-28.88h5.49Z"/>
      <path class="cls-3" d="M374.16,181.7c-2.02,2.09-4.62,3.13-7.8,3.13s-5.78-1.04-7.79-3.13c-2.02-2.09-3.03-4.69-3.03-7.82s1.01-5.73,3.03-7.82,4.62-3.13,7.79-3.13,5.78,1.04,7.8,3.13c2.02,2.09,3.03,4.69,3.03,7.82s-1.01,5.73-3.03,7.82ZM366.36,180.63c1.64,0,2.93-.61,3.86-1.84.93-1.22,1.39-2.86,1.39-4.91s-.46-3.69-1.39-4.93c-.93-1.24-2.21-1.86-3.86-1.86s-2.96.61-3.88,1.84c-.92,1.23-1.37,2.88-1.37,4.95s.46,3.68,1.37,4.91c.92,1.23,2.21,1.84,3.88,1.84Z"/>
      <path class="cls-3" d="M398.15,181.7c-2.02,2.09-4.62,3.13-7.79,3.13s-5.78-1.04-7.8-3.13c-2.02-2.09-3.03-4.69-3.03-7.82s1.01-5.73,3.03-7.82,4.62-3.13,7.8-3.13,5.78,1.04,7.79,3.13,3.03,4.69,3.03,7.82-1.01,5.73-3.03,7.82ZM390.35,180.63c1.64,0,2.93-.61,3.86-1.84.93-1.22,1.39-2.86,1.39-4.91s-.46-3.69-1.39-4.93c-.93-1.24-2.21-1.86-3.86-1.86s-2.96.61-3.88,1.84c-.92,1.23-1.37,2.88-1.37,4.95s.46,3.68,1.37,4.91c.92,1.23,2.21,1.84,3.88,1.84Z"/>
      <path class="cls-3" d="M404.61,184.22v-28.88h5.49v28.88h-5.49Z"/>
      <path class="cls-3" d="M225.48,223.83l10.06-28.88h6.06l10.18,28.88h-6.1l-1.94-6.14h-10.42l-1.9,6.14h-5.94ZM237.27,204.88l-2.58,8.32h7.63l-2.58-8.32-1.17-4.44h-.08c-.49,1.94-.89,3.42-1.21,4.44Z"/>
      <path class="cls-3" d="M259.93,203.11v2.83h.12c1.43-2.26,3.47-3.39,6.14-3.39,2.13,0,3.85.72,5.17,2.16s1.98,3.31,1.98,5.59v13.53h-5.49v-12.72c0-1.13-.32-2.05-.95-2.75s-1.51-1.05-2.65-1.05c-1.21,0-2.21.44-3.01,1.33-.79.89-1.19,2.03-1.19,3.43v11.75h-5.49v-20.72h5.37Z"/>
      <path class="cls-3" d="M285.3,224.43c-2.61,0-4.73-.99-6.34-2.97-1.62-1.98-2.42-4.64-2.42-7.98s.83-5.86,2.48-7.9,3.78-3.05,6.36-3.05,4.54,1.02,5.86,3.07h.12v-10.66h5.49v28.88h-5.29v-2.71h-.08c-1.35,2.21-3.41,3.31-6.18,3.31ZM286.51,219.83c1.62,0,2.85-.55,3.7-1.66.85-1.1,1.27-2.63,1.27-4.56,0-4.42-1.6-6.62-4.81-6.62-1.48,0-2.61.59-3.39,1.78-.78,1.18-1.17,2.76-1.17,4.73s.38,3.58,1.15,4.69,1.85,1.66,3.25,1.66Z"/>
      <path class="cls-3" d="M318.82,221.3c-2.02,2.09-4.62,3.13-7.79,3.13s-5.78-1.04-7.8-3.13c-2.02-2.09-3.03-4.69-3.03-7.82s1.01-5.73,3.03-7.82,4.62-3.13,7.8-3.13,5.78,1.04,7.79,3.13,3.03,4.69,3.03,7.82-1.01,5.73-3.03,7.82ZM311.03,220.23c1.64,0,2.93-.61,3.86-1.84.93-1.22,1.39-2.86,1.39-4.91s-.46-3.69-1.39-4.93c-.93-1.24-2.21-1.86-3.86-1.86s-2.96.61-3.88,1.84c-.92,1.23-1.37,2.88-1.37,4.95s.46,3.68,1.37,4.91c.92,1.23,2.21,1.84,3.88,1.84Z"/>
      <path class="cls-3" d="M330.49,203.11v3.31h.12c.65-1.21,1.36-2.11,2.14-2.69.78-.58,1.76-.87,2.95-.87.57,0,1,.05,1.29.16v4.81h-.12c-1.86-.19-3.35.22-4.48,1.21-1.13,1-1.7,2.56-1.7,4.69v10.1h-5.49v-20.72h5.29Z"/>
      <path class="cls-3" d="M345.48,203.11v3.31h.12c.65-1.21,1.36-2.11,2.14-2.69.78-.58,1.76-.87,2.95-.87.57,0,1,.05,1.29.16v4.81h-.12c-1.86-.19-3.35.22-4.48,1.21-1.13,1-1.7,2.56-1.7,4.69v10.1h-5.49v-20.72h5.29Z"/>
      <path class="cls-3" d="M367.61,223.83c-.27-.35-.48-1.12-.65-2.3h-.08c-.59.89-1.35,1.58-2.26,2.06-.92.48-2.2.73-3.84.73-2.18,0-3.93-.55-5.25-1.66-1.32-1.1-1.98-2.67-1.98-4.69s.73-3.64,2.18-4.62c1.45-.98,3.5-1.66,6.14-2.04,1.94-.27,3.26-.54,3.96-.83.7-.28,1.05-.79,1.05-1.51s-.3-1.35-.89-1.8c-.59-.44-1.45-.67-2.58-.67-2.5,0-3.84.97-4,2.91h-4.89c.08-1.97.87-3.6,2.38-4.89,1.51-1.29,3.69-1.94,6.54-1.94,5.82,0,8.72,2.54,8.72,7.63v10.54c0,1.56.24,2.52.73,2.87v.2h-5.29ZM362.12,220.47c1.51,0,2.7-.39,3.58-1.17.87-.78,1.31-1.71,1.31-2.79v-3.11c-.59.35-1.87.75-3.84,1.21-1.56.35-2.67.75-3.31,1.19s-.97,1.12-.97,2.04c0,1.75,1.08,2.62,3.23,2.62Z"/>
    </g>
    <use width="258.03" height="302.12" transform="translate(30.84 27.7) scale(.65)" xlink:href="#New_Symbol"/>
    <use width="456.77" height="162.16" transform="translate(228 25.88) scale(.44)" xlink:href="#New_Symbol_1"/>
  </g>
</svg>