<?xml version="1.0" encoding="UTF-8"?>
<svg xmlns="http://www.w3.org/2000/svg" xmlns:xlink="http://www.w3.org/1999/xlink" viewBox="0 0 291.84 289.77">
  <defs>
    <style>
      .cls-1 {
        fill: #bcbec0;
      }

      .cls-2 {
        fill: #231f20;
      }

      .cls-3 {
        fill: #fff;
      }
    </style>
    <symbol id="New_Symbol" data-name="New Symbol" viewBox="0 0 258.03 302.12">
      <g>
        <path class="cls-3" d="M129.61,74.11c-21.84,0-42,7.16-58.27,19.26-4.31-8.66-6.74-18.41-6.74-28.74C64.6,28.94,93.54,0,129.23,0s64.64,28.94,64.64,64.64c0,10.17-2.35,19.78-6.54,28.34-16.18-11.85-36.12-18.87-57.72-18.87ZM64.37,99.08c-6.29-3.6-13.57-5.67-21.34-5.67C19.26,93.41,0,112.68,0,136.44c0,19.97,13.61,36.76,32.06,41.61-.13-2.04-.21-4.09-.21-6.17,0-28.92,12.57-54.9,32.53-72.8ZM227.39,171.88c0,1.95-.07,3.89-.19,5.82,17.82-5.26,30.83-21.74,30.83-41.26,0-23.76-19.26-43.03-43.03-43.03-7.47,0-14.5,1.91-20.62,5.26,20.24,17.91,33.01,44.07,33.01,73.22ZM225.84,189.15c-7.33,41.13-40.35,73.35-81.9,79.45,9.78,19.85,30.2,33.52,53.82,33.52,33.12,0,59.97-26.85,59.97-59.97,0-22.98-12.93-42.93-31.9-53ZM33.27,188.45C13.55,198.27,0,218.62,0,242.15c0,33.12,26.85,59.97,59.97,59.97,23.71,0,44.2-13.76,53.94-33.73-41.12-6.64-73.64-38.93-80.64-79.94Z"/>
        <path class="cls-1" d="M71.34,93.38c16.27-12.1,36.44-19.26,58.27-19.26s41.54,7.01,57.72,18.87c-10.5,21.49-32.57,36.29-58.1,36.29s-47.31-14.62-57.89-35.89ZM86.06,136.44c0-16-8.73-29.94-21.69-37.36-19.96,17.9-32.53,43.88-32.53,72.8,0,2.07.09,4.13.21,6.17,3.5.92,7.18,1.42,10.97,1.42,23.76,0,43.03-19.26,43.03-43.03ZM171.97,136.44c0,23.76,19.26,43.03,43.03,43.03,4.24,0,8.33-.62,12.2-1.77.11-1.93.19-3.86.19-5.82,0-29.15-12.77-55.3-33.01-73.22-13.35,7.3-22.41,21.48-22.41,37.77ZM225.84,189.15c-8.38-4.45-17.93-6.97-28.07-6.97-33.12,0-59.97,26.85-59.97,59.97,0,9.5,2.22,18.47,6.15,26.46,41.54-6.1,74.56-38.33,81.9-79.45ZM59.97,182.17c-9.6,0-18.66,2.27-26.7,6.27,7,41,39.51,73.29,80.64,79.94,3.86-7.93,6.04-16.83,6.04-26.24,0-33.12-26.85-59.97-59.97-59.97Z"/>
      </g>
    </symbol>
    <symbol id="New_Symbol_1" data-name="New Symbol 1" viewBox="0 0 456.77 162.16">
      <g>
        <path class="cls-3" d="M143.11,158.04c-1.15,0-1.78,0-2.4,0-12.5,0-24.99-.05-37.49.05-1.84.01-2.89-.65-3.82-2.08-3.32-5.11-6.67-10.21-10.07-15.28-5.85-8.75-11.76-17.46-17.61-26.21-3.93-5.86-7.81-11.76-11.71-17.64-1.74-2.62-3.48-5.25-5.23-7.87-.67-1-1.35-.71-2.06,0-3.89,3.95-7.78,7.88-11.67,11.82-2,2.03-3.95,4.1-6,6.09-.82.8-1.18,1.62-1.18,2.78.04,15.46,0,30.93.06,46.39,0,1.55-.48,1.97-1.99,1.97-9.95-.06-19.91-.03-29.86-.03-2.08,0-2.06-.01-2.06-2.15C.04,105.47.04,55.05,0,4.64c0-1.41.37-1.81,1.76-1.81,10.11.05,20.23.05,30.34,0,1.35,0,1.85.34,1.84,1.78-.05,20.18-.05,40.35-.04,60.53,0,.52.31,1.03.48,1.55.49-.24,1.11-.36,1.46-.74,9.27-9.87,18.49-19.79,27.76-29.66,9.68-10.29,19.4-20.54,29.1-30.81.43-.46.84-.95,1.24-1.44.72-.88,1.59-1.21,2.76-1.21,12.87.04,25.73.02,38.6.03.45,0,.89.07,1.34.11.13.18.25.35.38.53-2.07,1.91-4.2,3.76-6.19,5.75-8.3,8.33-16.55,16.69-24.81,25.05-8.34,8.44-16.67,16.89-25.01,25.33-1.11,1.12-2.21,2.25-3.36,3.33-.72.68-.91,1.27-.25,2.17,3.79,5.24,7.53,10.52,11.26,15.8,3.37,4.77,6.68,9.59,10.05,14.36,4.34,6.15,8.72,12.28,13.06,18.43,4.71,6.66,9.37,13.35,14.09,20.01,4.68,6.62,9.4,13.2,14.1,19.81.96,1.35,1.91,2.71,3.17,4.5Z"/>
        <path class="cls-3" d="M390.62,162.09c-2.86,0-5.72-.06-8.58.01-4.26.1-8.4-.57-12.57-1.41-6.03-1.22-11.77-3.19-17.22-6-7.29-3.75-13.46-8.85-18.11-15.62-3.31-4.82-5.3-10.22-6.51-15.95-1.07-5.09-1.23-10.24-.66-15.32,1.06-9.56,4.93-17.88,12.21-24.43,5.69-5.12,12.22-8.79,19.51-11,7.96-2.42,16-4.57,24-6.86,3.79-1.09,7.58-2.2,11.36-3.33,4.73-1.41,9.48-2.74,14.17-4.3,4.19-1.39,7.89-3.59,9.85-7.83,2.15-4.66,1.76-9.3-.64-13.71-2.81-5.17-7.6-7.6-13.08-9.06-5.86-1.57-11.77-1.34-17.64-.45-6.06.92-11.75,2.91-16.13,7.58-3.49,3.73-5.27,8.22-5.83,13.21-.19,1.68-.83,2.13-2.49,2.11-9.42-.09-18.85-.04-28.27-.04-2.03,0-2.03-.01-1.96-2.04.21-6.34,1.36-12.5,3.94-18.31,3.94-8.87,10.48-15.36,18.81-20.17,5.48-3.16,11.34-5.46,17.48-6.71,10.55-2.15,21.19-3.35,32-1.64,5.28.84,10.5,1.82,15.51,3.7,5.49,2.06,10.64,4.79,15.33,8.37,4.54,3.46,8.42,7.5,11.26,12.44,2.29,3.98,4.18,8.17,4.62,12.82.38,3.99.89,8.01.72,11.99-.51,12.05-5.97,21.46-15.74,28.51-5.44,3.92-11.57,6.16-17.92,8-4.71,1.36-9.37,2.87-14.08,4.25-4.39,1.29-8.81,2.44-13.2,3.73-7.16,2.11-14.49,3.77-21.02,7.61-3.81,2.25-7.28,4.88-9.15,9.06-1.47,3.28-1.59,6.62-.71,10.17,1.57,6.35,5.96,9.8,11.62,12.11,8.49,3.47,17.28,3.99,26.29,2.74,6.11-.85,11.81-2.73,16.71-6.5,5.31-4.08,8.59-9.48,9.56-16.18.2-1.36.49-2.71.51-4.07.02-1.3.45-1.73,1.77-1.72,8.95.05,17.9.03,26.84.03,3.51,0,3.37,0,3.54,3.48.27,5.33-.69,10.49-2.41,15.42-2.61,7.5-6.9,14-12.89,19.37-4.56,4.09-9.59,7.43-15.15,9.88-3.55,1.56-7.31,2.65-11.01,3.86-8.04,2.62-16.36,2.36-24.66,2.23Z"/>
        <path class="cls-3" d="M308.93,79.83c0,25.31-.01,50.63.03,75.94,0,1.38-.51,1.76-1.76,1.75-8.47-.02-16.94-.02-25.41,0-1.28,0-1.87-.26-1.77-1.82.2-2.9.06-5.82.08-8.73,0-.69.13-1.37.1-2.06-.02-.46-.24-.9-.36-1.36-.46.26-1.04.41-1.34.79-1.17,1.48-2.16,3.11-3.39,4.54-4.63,5.38-10.61,8.48-17.4,10.27-6.07,1.6-12.26,1.81-18.39,1.18-12.42-1.29-22.79-6.72-30.65-16.59-4.46-5.6-7.96-11.8-10.01-18.63-1.49-4.97-2.41-10.17-3.06-15.33-.57-4.54-.68-9.19-.52-13.77.21-6.07,1.22-12.04,3.04-17.89,1.55-4.97,3.62-9.65,6.43-13.98,4.11-6.33,9.11-11.77,15.71-15.69,3.85-2.28,7.9-4.08,12.18-4.97,7.01-1.45,14.12-1.68,21.28-.44,5.67.98,10.8,3.05,15.42,6.4,3.08,2.24,5.77,4.89,7.79,8.17.25.41.89.58,1.35.86.18-.44.53-.88.53-1.32,0-17.63,0-35.27-.07-52.9,0-1.49.34-2.01,1.92-2,8.84.07,17.68.05,26.53.02,1.22,0,1.8.22,1.79,1.64-.04,25.31-.03,50.63-.03,75.94h-.02ZM225.37,100.49c-.27,9.81,1.74,18.57,7.05,26.39,4.75,7,11.24,10.96,19.88,10.8,2.3-.04,4.61-.3,6.88-.64,7.23-1.08,12.19-5.28,15.64-11.52,3.03-5.47,4.12-11.47,4.66-17.58.62-6.98.38-13.93-1.22-20.81-1.25-5.34-3.18-10.32-6.91-14.48-3.43-3.83-7.67-6.26-12.69-7.12-3.42-.59-6.86-.85-10.38-.21-3.21.59-6.28,1.4-9.04,3.1-6.56,4.04-10.01,10.38-12.1,17.47-1.43,4.87-2.07,9.93-1.79,14.6Z"/>
        <path class="cls-3" d="M183.25,58.65c0,18.05-.02,36.11.03,54.16,0,1.51-.37,1.99-1.93,1.97-8.73-.07-17.47-.04-26.2-.04-2.25,0-2.17,0-2.17-2.26.04-8.74.02-17.47.02-26.21,0-26.47,0-52.94,0-79.42,0-.69.02-1.38-.01-2.06-.09-2.18-.07-2.23,2.07-2.23,8.79,0,17.57.02,26.36-.03,1.49,0,1.86.52,1.86,1.94-.04,18.05-.03,36.11-.03,54.16Z"/>
        <path class="cls-3" d="M168.2,132.84c4.44,0,8.89.04,13.33-.02,1.29-.02,1.75.35,1.74,1.7-.06,7.25-.05,14.5,0,21.75,0,1.23-.36,1.64-1.63,1.63-8.94-.05-17.88-.02-26.82-.03-1.87,0-1.87-.13-1.86-2.01.04-7.09.05-14.18-.04-21.27-.02-1.36.33-1.78,1.64-1.77,4.55.05,9.1.02,13.65.02Z"/>
      </g>
    </symbol>
  </defs>
  <g id="Layer_2" data-name="Layer 2">
    <rect class="cls-2" x="-.45" width="290.51" height="290.51"/>
  </g>
  <g id="Layer_1" data-name="Layer 1">
    <use width="258.03" height="302.12" transform="translate(85.5 31.31) scale(.46)" xlink:href="#New_Symbol"/>
    <use width="456.77" height="162.16" transform="translate(46.16 187.62) scale(.44)" xlink:href="#New_Symbol_1"/>
  </g>
</svg>