<?xml version="1.0" encoding="UTF-8"?>
<svg xmlns="http://www.w3.org/2000/svg" xmlns:xlink="http://www.w3.org/1999/xlink" viewBox="0 0 754.73 197.18">
  <defs>
    <style>
      .cls-1 {
        fill: #bcbec0;
      }

      .cls-2 {
        fill: #231f20;
      }

      .cls-3 {
        fill: #fff;
      }
    </style>
    <symbol id="New_Symbol" data-name="New Symbol" viewBox="0 0 258.03 302.12">
      <g>
        <path class="cls-3" d="M129.61,74.11c-21.84,0-42,7.16-58.27,19.26-4.31-8.66-6.74-18.41-6.74-28.74C64.6,28.94,93.54,0,129.23,0s64.64,28.94,64.64,64.64c0,10.17-2.35,19.78-6.54,28.34-16.18-11.85-36.12-18.87-57.72-18.87ZM64.37,99.08c-6.29-3.6-13.57-5.67-21.34-5.67C19.26,93.41,0,112.68,0,136.44c0,19.97,13.61,36.76,32.06,41.61-.13-2.04-.21-4.09-.21-6.17,0-28.92,12.57-54.9,32.53-72.8ZM227.39,171.88c0,1.95-.07,3.89-.19,5.82,17.82-5.26,30.83-21.74,30.83-41.26,0-23.76-19.26-43.03-43.03-43.03-7.47,0-14.5,1.91-20.62,5.26,20.24,17.91,33.01,44.07,33.01,73.22ZM225.84,189.15c-7.33,41.13-40.35,73.35-81.9,79.45,9.78,19.85,30.2,33.52,53.82,33.52,33.12,0,59.97-26.85,59.97-59.97,0-22.98-12.93-42.93-31.9-53ZM33.27,188.45C13.55,198.27,0,218.62,0,242.15c0,33.12,26.85,59.97,59.97,59.97,23.71,0,44.2-13.76,53.94-33.73-41.12-6.64-73.64-38.93-80.64-79.94Z"/>
        <path class="cls-1" d="M71.34,93.38c16.27-12.1,36.44-19.26,58.27-19.26s41.54,7.01,57.72,18.87c-10.5,21.49-32.57,36.29-58.1,36.29s-47.31-14.62-57.89-35.89ZM86.06,136.44c0-16-8.73-29.94-21.69-37.36-19.96,17.9-32.53,43.88-32.53,72.8,0,2.07.09,4.13.21,6.17,3.5.92,7.18,1.42,10.97,1.42,23.76,0,43.03-19.26,43.03-43.03ZM171.97,136.44c0,23.76,19.26,43.03,43.03,43.03,4.24,0,8.33-.62,12.2-1.77.11-1.93.19-3.86.19-5.82,0-29.15-12.77-55.3-33.01-73.22-13.35,7.3-22.41,21.48-22.41,37.77ZM225.84,189.15c-8.38-4.45-17.93-6.97-28.07-6.97-33.12,0-59.97,26.85-59.97,59.97,0,9.5,2.22,18.47,6.15,26.46,41.54-6.1,74.56-38.33,81.9-79.45ZM59.97,182.17c-9.6,0-18.66,2.27-26.7,6.27,7,41,39.51,73.29,80.64,79.94,3.86-7.93,6.04-16.83,6.04-26.24,0-33.12-26.85-59.97-59.97-59.97Z"/>
      </g>
    </symbol>
    <symbol id="New_Symbol_1" data-name="New Symbol 1" viewBox="0 0 456.77 162.16">
      <g>
        <path class="cls-3" d="M143.11,158.04c-1.15,0-1.78,0-2.4,0-12.5,0-24.99-.05-37.49.05-1.84.01-2.89-.65-3.82-2.08-3.32-5.11-6.67-10.21-10.07-15.28-5.85-8.75-11.76-17.46-17.61-26.21-3.93-5.86-7.81-11.76-11.71-17.64-1.74-2.62-3.48-5.25-5.23-7.87-.67-1-1.35-.71-2.06,0-3.89,3.95-7.78,7.88-11.67,11.82-2,2.03-3.95,4.1-6,6.09-.82.8-1.18,1.62-1.18,2.78.04,15.46,0,30.93.06,46.39,0,1.55-.48,1.97-1.99,1.97-9.95-.06-19.91-.03-29.86-.03-2.08,0-2.06-.01-2.06-2.15C.04,105.47.04,55.05,0,4.64c0-1.41.37-1.81,1.76-1.81,10.11.05,20.23.05,30.34,0,1.35,0,1.85.34,1.84,1.78-.05,20.18-.05,40.35-.04,60.53,0,.52.31,1.03.48,1.55.49-.24,1.11-.36,1.46-.74,9.27-9.87,18.49-19.79,27.76-29.66,9.68-10.29,19.4-20.54,29.1-30.81.43-.46.84-.95,1.24-1.44.72-.88,1.59-1.21,2.76-1.21,12.87.04,25.73.02,38.6.03.45,0,.89.07,1.34.11.13.18.25.35.38.53-2.07,1.91-4.2,3.76-6.19,5.75-8.3,8.33-16.55,16.69-24.81,25.05-8.34,8.44-16.67,16.89-25.01,25.33-1.11,1.12-2.21,2.25-3.36,3.33-.72.68-.91,1.27-.25,2.17,3.79,5.24,7.53,10.52,11.26,15.8,3.37,4.77,6.68,9.59,10.05,14.36,4.34,6.15,8.72,12.28,13.06,18.43,4.71,6.66,9.37,13.35,14.09,20.01,4.68,6.62,9.4,13.2,14.1,19.81.96,1.35,1.91,2.71,3.17,4.5Z"/>
        <path class="cls-3" d="M390.62,162.09c-2.86,0-5.72-.06-8.58.01-4.26.1-8.4-.57-12.57-1.41-6.03-1.22-11.77-3.19-17.22-6-7.29-3.75-13.46-8.85-18.11-15.62-3.31-4.82-5.3-10.22-6.51-15.95-1.07-5.09-1.23-10.24-.66-15.32,1.06-9.56,4.93-17.88,12.21-24.43,5.69-5.12,12.22-8.79,19.51-11,7.96-2.42,16-4.57,24-6.86,3.79-1.09,7.58-2.2,11.36-3.33,4.73-1.41,9.48-2.74,14.17-4.3,4.19-1.39,7.89-3.59,9.85-7.83,2.15-4.66,1.76-9.3-.64-13.71-2.81-5.17-7.6-7.6-13.08-9.06-5.86-1.57-11.77-1.34-17.64-.45-6.06.92-11.75,2.91-16.13,7.58-3.49,3.73-5.27,8.22-5.83,13.21-.19,1.68-.83,2.13-2.49,2.11-9.42-.09-18.85-.04-28.27-.04-2.03,0-2.03-.01-1.96-2.04.21-6.34,1.36-12.5,3.94-18.31,3.94-8.87,10.48-15.36,18.81-20.17,5.48-3.16,11.34-5.46,17.48-6.71,10.55-2.15,21.19-3.35,32-1.64,5.28.84,10.5,1.82,15.51,3.7,5.49,2.06,10.64,4.79,15.33,8.37,4.54,3.46,8.42,7.5,11.26,12.44,2.29,3.98,4.18,8.17,4.62,12.82.38,3.99.89,8.01.72,11.99-.51,12.05-5.97,21.46-15.74,28.51-5.44,3.92-11.57,6.16-17.92,8-4.71,1.36-9.37,2.87-14.08,4.25-4.39,1.29-8.81,2.44-13.2,3.73-7.16,2.11-14.49,3.77-21.02,7.61-3.81,2.25-7.28,4.88-9.15,9.06-1.47,3.28-1.59,6.62-.71,10.17,1.57,6.35,5.96,9.8,11.62,12.11,8.49,3.47,17.28,3.99,26.29,2.74,6.11-.85,11.81-2.73,16.71-6.5,5.31-4.08,8.59-9.48,9.56-16.18.2-1.36.49-2.71.51-4.07.02-1.3.45-1.73,1.77-1.72,8.95.05,17.9.03,26.84.03,3.51,0,3.37,0,3.54,3.48.27,5.33-.69,10.49-2.41,15.42-2.61,7.5-6.9,14-12.89,19.37-4.56,4.09-9.59,7.43-15.15,9.88-3.55,1.56-7.31,2.65-11.01,3.86-8.04,2.62-16.36,2.36-24.66,2.23Z"/>
        <path class="cls-3" d="M308.93,79.83c0,25.31-.01,50.63.03,75.94,0,1.38-.51,1.76-1.76,1.75-8.47-.02-16.94-.02-25.41,0-1.28,0-1.87-.26-1.77-1.82.2-2.9.06-5.82.08-8.73,0-.69.13-1.37.1-2.06-.02-.46-.24-.9-.36-1.36-.46.26-1.04.41-1.34.79-1.17,1.48-2.16,3.11-3.39,4.54-4.63,5.38-10.61,8.48-17.4,10.27-6.07,1.6-12.26,1.81-18.39,1.18-12.42-1.29-22.79-6.72-30.65-16.59-4.46-5.6-7.96-11.8-10.01-18.63-1.49-4.97-2.41-10.17-3.06-15.33-.57-4.54-.68-9.19-.52-13.77.21-6.07,1.22-12.04,3.04-17.89,1.55-4.97,3.62-9.65,6.43-13.98,4.11-6.33,9.11-11.77,15.71-15.69,3.85-2.28,7.9-4.08,12.18-4.97,7.01-1.45,14.12-1.68,21.28-.44,5.67.98,10.8,3.05,15.42,6.4,3.08,2.24,5.77,4.89,7.79,8.17.25.41.89.58,1.35.86.18-.44.53-.88.53-1.32,0-17.63,0-35.27-.07-52.9,0-1.49.34-2.01,1.92-2,8.84.07,17.68.05,26.53.02,1.22,0,1.8.22,1.79,1.64-.04,25.31-.03,50.63-.03,75.94h-.02ZM225.37,100.49c-.27,9.81,1.74,18.57,7.05,26.39,4.75,7,11.24,10.96,19.88,10.8,2.3-.04,4.61-.3,6.88-.64,7.23-1.08,12.19-5.28,15.64-11.52,3.03-5.47,4.12-11.47,4.66-17.58.62-6.98.38-13.93-1.22-20.81-1.25-5.34-3.18-10.32-6.91-14.48-3.43-3.83-7.67-6.26-12.69-7.12-3.42-.59-6.86-.85-10.38-.21-3.21.59-6.28,1.4-9.04,3.1-6.56,4.04-10.01,10.38-12.1,17.47-1.43,4.87-2.07,9.93-1.79,14.6Z"/>
        <path class="cls-3" d="M183.25,58.65c0,18.05-.02,36.11.03,54.16,0,1.51-.37,1.99-1.93,1.97-8.73-.07-17.47-.04-26.2-.04-2.25,0-2.17,0-2.17-2.26.04-8.74.02-17.47.02-26.21,0-26.47,0-52.94,0-79.42,0-.69.02-1.38-.01-2.06-.09-2.18-.07-2.23,2.07-2.23,8.79,0,17.57.02,26.36-.03,1.49,0,1.86.52,1.86,1.94-.04,18.05-.03,36.11-.03,54.16Z"/>
        <path class="cls-3" d="M168.2,132.84c4.44,0,8.89.04,13.33-.02,1.29-.02,1.75.35,1.74,1.7-.06,7.25-.05,14.5,0,21.75,0,1.23-.36,1.64-1.63,1.63-8.94-.05-17.88-.02-26.82-.03-1.87,0-1.87-.13-1.86-2.01.04-7.09.05-14.18-.04-21.27-.02-1.36.33-1.78,1.64-1.77,4.55.05,9.1.02,13.65.02Z"/>
      </g>
    </symbol>
  </defs>
  <g id="Layer_2" data-name="Layer 2">
    <rect class="cls-2" y="-.19" width="754.73" height="197.37"/>
  </g>
  <g id="Layer_1" data-name="Layer 1">
    <g>
      <path class="cls-3" d="M507.29,79.84v-25.6h3.22v25.6h-3.22Z"/>
      <path class="cls-3" d="M518.57,61.33v2.43h.07c1.43-1.91,3.39-2.86,5.87-2.86,1.96,0,3.49.51,4.58,1.54,1.1,1.03,1.65,2.5,1.65,4.41v13h-2.9v-12.75c0-1.19-.37-2.12-1.11-2.77-.74-.66-1.77-.99-3.08-.99-1.48,0-2.7.48-3.65,1.43s-1.43,2.18-1.43,3.69v11.39h-2.9v-18.51h2.9Z"/>
      <path class="cls-3" d="M533.75,63.69v-2.36h2.69v-5.84h2.9v5.84h3.58v2.36h-3.58v12.03c0,1.15.62,1.72,1.86,1.72.53,0,1.04-.08,1.54-.25h.11v2.51c-.79.17-1.56.25-2.33.25-2.72,0-4.08-1.19-4.08-3.58v-12.68h-2.69Z"/>
      <path class="cls-3" d="M554.38,80.34c-2.75,0-4.92-.92-6.54-2.78-1.61-1.85-2.42-4.17-2.42-6.96s.82-5.05,2.45-6.93c1.63-1.87,3.74-2.81,6.32-2.81,2.72,0,4.82.95,6.3,2.85,1.48,1.9,2.22,4.42,2.22,7.57h-14.32c.12,1.96.7,3.55,1.74,4.78,1.04,1.23,2.45,1.84,4.24,1.84,2.77,0,4.48-1.27,5.12-3.8h2.83c-.43,1.98-1.34,3.52-2.72,4.6-1.38,1.09-3.13,1.63-5.23,1.63ZM558.07,64.73c-.93-1.05-2.22-1.58-3.87-1.58s-2.95.55-3.92,1.65c-.97,1.1-1.57,2.53-1.81,4.3h11.14c-.1-1.86-.61-3.32-1.54-4.37Z"/>
      <path class="cls-3" d="M569.17,61.33v3.08h.07c.6-.98,1.37-1.77,2.33-2.38.96-.61,2.02-.91,3.19-.91.43,0,.82.07,1.18.21v2.79h-.11c-.36-.12-.79-.18-1.29-.18-1.48,0-2.75.52-3.8,1.56-1.05,1.04-1.58,2.39-1.58,4.06v10.28h-2.9v-18.51h2.9Z"/>
      <path class="cls-3" d="M582.16,61.33v2.43h.07c1.43-1.91,3.39-2.86,5.87-2.86,1.96,0,3.49.51,4.58,1.54,1.1,1.03,1.65,2.5,1.65,4.41v13h-2.9v-12.75c0-1.19-.37-2.12-1.11-2.77-.74-.66-1.77-.99-3.08-.99-1.48,0-2.7.48-3.65,1.43s-1.43,2.18-1.43,3.69v11.39h-2.9v-18.51h2.9Z"/>
      <path class="cls-3" d="M613.42,80.02c-1.84,0-2.9-.92-3.19-2.76h-.04c-1.53,1.96-3.58,2.94-6.16,2.94-1.84,0-3.34-.44-4.51-1.32-1.17-.88-1.75-2.16-1.75-3.83,0-.86.14-1.6.41-2.24.27-.63.63-1.15,1.06-1.54s1.02-.74,1.77-1.04,1.47-.53,2.17-.68c.69-.16,1.58-.32,2.65-.48.69-.09,1.19-.17,1.49-.23.3-.06.69-.16,1.16-.29.48-.13.81-.28,1-.45s.37-.39.54-.68c.17-.29.25-.62.25-1,0-1.05-.36-1.86-1.09-2.42-.73-.56-1.75-.84-3.06-.84-2.98,0-4.52,1.36-4.62,4.08h-2.79c.05-1.89.7-3.4,1.95-4.55,1.25-1.15,3.06-1.72,5.42-1.72,4.56,0,6.84,1.96,6.84,5.87v8.81c0,.81.14,1.38.41,1.72s.79.42,1.56.25h.11v2.11c-.48.19-1,.29-1.58.29ZM604.69,77.98c1.79,0,3.17-.52,4.15-1.56s1.47-2.18,1.47-3.42v-3.15c-.88.55-2.29,1-4.23,1.36-.72.14-1.28.26-1.68.34-.41.08-.87.23-1.4.43-.53.2-.92.42-1.18.66-.26.24-.49.55-.68.95-.19.39-.29.85-.29,1.38,0,2,1.28,3.01,3.83,3.01Z"/>
      <path class="cls-3" d="M616.32,63.69v-2.36h2.69v-5.84h2.9v5.84h3.58v2.36h-3.58v12.03c0,1.15.62,1.72,1.86,1.72.53,0,1.04-.08,1.54-.25h.11v2.51c-.79.17-1.56.25-2.33.25-2.72,0-4.08-1.19-4.08-3.58v-12.68h-2.69Z"/>
      <path class="cls-3" d="M629.22,57.82v-3.58h2.9v3.58h-2.9ZM629.22,79.84v-18.51h2.9v18.51h-2.9Z"/>
      <path class="cls-3" d="M651.17,77.55c-1.62,1.86-3.78,2.79-6.48,2.79s-4.86-.93-6.5-2.79c-1.64-1.86-2.45-4.18-2.45-6.95s.82-5.08,2.45-6.95c1.63-1.86,3.8-2.79,6.5-2.79s4.86.93,6.48,2.79c1.62,1.86,2.43,4.18,2.43,6.95s-.81,5.08-2.43,6.95ZM640.26,75.85c1.04,1.37,2.51,2.06,4.42,2.06s3.38-.69,4.4-2.06c1.03-1.37,1.54-3.12,1.54-5.25s-.52-3.91-1.56-5.28c-1.04-1.37-2.5-2.06-4.39-2.06s-3.38.69-4.42,2.08c-1.04,1.38-1.56,3.14-1.56,5.26s.52,3.87,1.56,5.25Z"/>
      <path class="cls-3" d="M660.12,61.33v2.43h.07c1.43-1.91,3.39-2.86,5.87-2.86,1.96,0,3.49.51,4.58,1.54,1.1,1.03,1.65,2.5,1.65,4.41v13h-2.9v-12.75c0-1.19-.37-2.12-1.11-2.77-.74-.66-1.77-.99-3.08-.99-1.48,0-2.7.48-3.65,1.43s-1.43,2.18-1.43,3.69v11.39h-2.9v-18.51h2.9Z"/>
      <path class="cls-3" d="M691.38,80.02c-1.84,0-2.9-.92-3.19-2.76h-.04c-1.53,1.96-3.58,2.94-6.16,2.94-1.84,0-3.34-.44-4.51-1.32-1.17-.88-1.75-2.16-1.75-3.83,0-.86.14-1.6.41-2.24.27-.63.63-1.15,1.06-1.54s1.02-.74,1.77-1.04,1.47-.53,2.17-.68c.69-.16,1.58-.32,2.65-.48.69-.09,1.19-.17,1.49-.23.3-.06.69-.16,1.16-.29.48-.13.81-.28,1-.45s.37-.39.54-.68c.17-.29.25-.62.25-1,0-1.05-.36-1.86-1.09-2.42-.73-.56-1.75-.84-3.06-.84-2.98,0-4.52,1.36-4.62,4.08h-2.79c.05-1.89.7-3.4,1.95-4.55,1.25-1.15,3.06-1.72,5.42-1.72,4.56,0,6.84,1.96,6.84,5.87v8.81c0,.81.14,1.38.41,1.72s.79.42,1.56.25h.11v2.11c-.48.19-1,.29-1.58.29ZM682.64,77.98c1.79,0,3.17-.52,4.15-1.56s1.47-2.18,1.47-3.42v-3.15c-.88.55-2.29,1-4.23,1.36-.72.14-1.28.26-1.68.34-.41.08-.87.23-1.4.43-.53.2-.92.42-1.18.66-.26.24-.49.55-.68.95-.19.39-.29.85-.29,1.38,0,2,1.28,3.01,3.83,3.01Z"/>
      <path class="cls-3" d="M695.92,79.84v-25.6h2.9v25.6h-2.9Z"/>
      <path class="cls-3" d="M506.79,114.95v-25.6h11.24c2.91,0,5.14.8,6.7,2.4,1.53,1.58,2.29,3.52,2.29,5.84,0,2.43-.76,4.39-2.29,5.87-1.53,1.48-3.62,2.22-6.27,2.22h-6.3v9.27h-5.37ZM512.16,93.86v7.59h5.37c1.34,0,2.36-.34,3.08-1.02.72-.68,1.07-1.62,1.07-2.81s-.36-2.12-1.07-2.77c-.72-.66-1.72-.99-3.01-.99h-5.44Z"/>
      <path class="cls-3" d="M534.61,96.58v2.94h.11c.57-1.07,1.21-1.87,1.9-2.38.69-.51,1.56-.77,2.61-.77.5,0,.88.05,1.15.14v4.26h-.11c-1.65-.17-2.97.19-3.97,1.07-1,.88-1.5,2.27-1.5,4.15v8.95h-4.87v-18.37h4.69Z"/>
      <path class="cls-3" d="M551.3,115.49c-2.96,0-5.29-.91-6.98-2.74-1.7-1.83-2.54-4.16-2.54-7s.85-5.04,2.54-6.89c1.69-1.85,3.87-2.77,6.52-2.77,2.89,0,5.12,1,6.7,3.01,1.58,2,2.36,4.69,2.36,8.06h-13.32c.19,1.46.68,2.58,1.47,3.38.79.8,1.86,1.2,3.22,1.2,1.79,0,2.97-.75,3.55-2.26h4.8c-.36,1.72-1.27,3.15-2.72,4.3-1.46,1.15-3.32,1.72-5.59,1.72ZM550.9,99.84c-2.36,0-3.78,1.31-4.26,3.94h8.17c-.07-1.17-.47-2.12-1.18-2.85-.72-.73-1.62-1.09-2.72-1.09Z"/>
      <path class="cls-3" d="M570.31,115.49c-2.63,0-4.68-.58-6.16-1.74-1.48-1.16-2.29-2.74-2.43-4.75h4.51c.31,2.03,1.65,3.04,4.01,3.04,1.07,0,1.9-.19,2.49-.57s.88-.9.88-1.54c0-.24-.04-.45-.13-.64s-.23-.36-.43-.52-.38-.28-.54-.38c-.16-.09-.42-.19-.81-.29s-.67-.17-.88-.21c-.2-.05-.55-.11-1.04-.2-.49-.08-.83-.15-1.02-.2-1-.19-1.82-.39-2.45-.59-.63-.2-1.3-.5-1.99-.89-.69-.39-1.21-.93-1.56-1.61-.35-.68-.52-1.5-.52-2.45,0-1.91.7-3.37,2.09-4.37,1.4-1,3.19-1.5,5.39-1.5,2.36,0,4.22.54,5.57,1.63,1.35,1.09,2.12,2.57,2.31,4.46h-4.4c-.19-1.79-1.37-2.69-3.54-2.69-.98,0-1.75.18-2.31.54-.56.36-.84.86-.84,1.5,0,.21.04.41.13.59.08.18.23.33.43.47.2.13.4.24.59.32.19.08.46.17.82.25.36.08.67.16.93.21.26.06.62.13,1.07.21.45.08.81.15,1.07.2.76.17,1.39.32,1.88.45.49.13,1.06.35,1.7.64.64.3,1.15.63,1.52,1,.37.37.69.87.97,1.5.27.63.41,1.37.41,2.2,0,1.81-.71,3.25-2.13,4.32-1.42,1.06-3.29,1.59-5.6,1.59Z"/>
      <path class="cls-3" d="M589.65,115.49c-2.84,0-5.12-.92-6.84-2.76-1.72-1.84-2.58-4.15-2.58-6.95s.84-5.11,2.52-6.95c1.68-1.84,3.9-2.76,6.64-2.76,2.32,0,4.2.61,5.66,1.83,1.46,1.22,2.35,2.85,2.69,4.91h-4.76c-.17-.83-.55-1.52-1.15-2.04-.6-.52-1.34-.79-2.22-.79-1.43,0-2.53.51-3.29,1.54-.76,1.03-1.15,2.45-1.15,4.26s.37,3.21,1.11,4.24c.74,1.04,1.83,1.56,3.26,1.56,2.12,0,3.35-1.04,3.69-3.12h4.69c-.17,2.03-.99,3.71-2.47,5.03-1.48,1.33-3.41,1.99-5.8,1.99Z"/>
      <path class="cls-3" d="M605.62,89.35v9.63h.11c.69-1,1.45-1.74,2.27-2.2.82-.47,1.84-.7,3.06-.7,1.88,0,3.41.64,4.58,1.92,1.17,1.28,1.75,2.93,1.75,4.96v12h-4.87v-11.28c0-1-.28-1.81-.84-2.43s-1.34-.93-2.35-.93c-1.07,0-1.96.39-2.67,1.18-.71.79-1.06,1.8-1.06,3.04v10.42h-4.87v-25.6h4.87Z"/>
      <path class="cls-3" d="M636.73,112.71c-1.79,1.85-4.09,2.77-6.91,2.77s-5.12-.92-6.91-2.77c-1.79-1.85-2.69-4.16-2.69-6.93s.89-5.08,2.69-6.93c1.79-1.85,4.09-2.77,6.91-2.77s5.12.92,6.91,2.77c1.79,1.85,2.69,4.16,2.69,6.93s-.89,5.08-2.69,6.93ZM629.82,111.76c1.46,0,2.6-.54,3.42-1.63.82-1.09,1.24-2.54,1.24-4.35s-.41-3.27-1.24-4.37c-.82-1.1-1.96-1.65-3.42-1.65s-2.63.54-3.44,1.63-1.22,2.55-1.22,4.39.41,3.26,1.22,4.35c.81,1.09,1.96,1.63,3.44,1.63Z"/>
      <path class="cls-3" d="M658,112.71c-1.79,1.85-4.09,2.77-6.91,2.77s-5.12-.92-6.91-2.77c-1.79-1.85-2.69-4.16-2.69-6.93s.89-5.08,2.69-6.93c1.79-1.85,4.09-2.77,6.91-2.77s5.12.92,6.91,2.77c1.79,1.85,2.69,4.16,2.69,6.93s-.89,5.08-2.69,6.93ZM651.09,111.76c1.46,0,2.6-.54,3.42-1.63.82-1.09,1.24-2.54,1.24-4.35s-.41-3.27-1.24-4.37c-.82-1.1-1.96-1.65-3.42-1.65s-2.63.54-3.44,1.63-1.22,2.55-1.22,4.39.41,3.26,1.22,4.35c.81,1.09,1.96,1.63,3.44,1.63Z"/>
      <path class="cls-3" d="M663.73,114.95v-25.6h4.87v25.6h-4.87Z"/>
      <path class="cls-3" d="M504.93,150.06l8.92-25.6h5.37l9.02,25.6h-5.41l-1.72-5.44h-9.24l-1.68,5.44h-5.26ZM515.38,133.27l-2.29,7.38h6.77l-2.29-7.38-1.04-3.94h-.07c-.43,1.72-.79,3.03-1.07,3.94Z"/>
      <path class="cls-3" d="M535.47,131.69v2.51h.11c1.26-2,3.08-3.01,5.44-3.01,1.88,0,3.41.64,4.58,1.92,1.17,1.28,1.75,2.93,1.75,4.96v12h-4.87v-11.28c0-1-.28-1.81-.84-2.44-.56-.62-1.34-.93-2.35-.93-1.07,0-1.96.39-2.67,1.18-.71.79-1.06,1.8-1.06,3.04v10.42h-4.87v-18.37h4.76Z"/>
      <path class="cls-3" d="M557.96,150.6c-2.32,0-4.19-.88-5.62-2.63-1.43-1.75-2.15-4.11-2.15-7.07s.73-5.2,2.2-7c1.47-1.8,3.35-2.7,5.64-2.7s4.02.91,5.19,2.72h.11v-9.45h4.87v25.6h-4.69v-2.4h-.07c-1.19,1.96-3.02,2.94-5.48,2.94ZM559.03,146.52c1.43,0,2.53-.49,3.28-1.47s1.13-2.33,1.13-4.05c0-3.92-1.42-5.87-4.26-5.87-1.31,0-2.32.53-3.01,1.58-.69,1.05-1.04,2.45-1.04,4.19s.34,3.18,1.02,4.15c.68.98,1.64,1.47,2.88,1.47Z"/>
      <path class="cls-3" d="M587.68,147.82c-1.79,1.85-4.09,2.78-6.91,2.78s-5.12-.92-6.91-2.78c-1.79-1.85-2.69-4.16-2.69-6.93s.89-5.08,2.69-6.93c1.79-1.85,4.09-2.78,6.91-2.78s5.12.93,6.91,2.78c1.79,1.85,2.69,4.16,2.69,6.93s-.89,5.08-2.69,6.93ZM580.77,146.88c1.46,0,2.6-.54,3.42-1.63.82-1.09,1.24-2.54,1.24-4.35s-.41-3.27-1.24-4.37c-.82-1.1-1.96-1.65-3.42-1.65s-2.63.54-3.44,1.63c-.81,1.09-1.22,2.55-1.22,4.39s.41,3.26,1.22,4.35c.81,1.09,1.96,1.63,3.44,1.63Z"/>
      <path class="cls-3" d="M598.03,131.69v2.94h.11c.57-1.07,1.21-1.87,1.9-2.38.69-.51,1.56-.77,2.61-.77.5,0,.88.05,1.15.14v4.26h-.11c-1.65-.17-2.97.19-3.97,1.07s-1.5,2.27-1.5,4.15v8.95h-4.87v-18.37h4.69Z"/>
      <path class="cls-3" d="M611.31,131.69v2.94h.11c.57-1.07,1.21-1.87,1.9-2.38.69-.51,1.56-.77,2.61-.77.5,0,.88.05,1.15.14v4.26h-.11c-1.65-.17-2.97.19-3.97,1.07s-1.5,2.27-1.5,4.15v8.95h-4.87v-18.37h4.69Z"/>
      <path class="cls-3" d="M630.93,150.06c-.24-.31-.43-.99-.57-2.04h-.07c-.53.79-1.19,1.4-2.01,1.83s-1.95.64-3.4.64c-1.93,0-3.49-.49-4.66-1.47s-1.75-2.36-1.75-4.15.64-3.23,1.93-4.1,3.1-1.47,5.44-1.81c1.72-.24,2.89-.48,3.51-.73.62-.25.93-.7.93-1.34s-.26-1.2-.79-1.59c-.53-.39-1.29-.59-2.29-.59-2.22,0-3.4.86-3.54,2.58h-4.33c.07-1.74.78-3.19,2.11-4.33s3.27-1.72,5.8-1.72c5.16,0,7.73,2.26,7.73,6.77v9.35c0,1.38.21,2.23.64,2.54v.18h-4.69ZM626.06,147.09c1.34,0,2.39-.35,3.17-1.04.78-.69,1.16-1.52,1.16-2.47v-2.76c-.53.31-1.66.67-3.4,1.07-1.38.31-2.36.66-2.94,1.06-.57.39-.86,1-.86,1.81,0,1.55.95,2.33,2.86,2.33Z"/>
    </g>
    <use width="258.03" height="302.12" transform="translate(53.83 37.32) scale(.41)" xlink:href="#New_Symbol"/>
    <use width="456.77" height="162.16" transform="translate(193.01 53.31) scale(.62)" xlink:href="#New_Symbol_1"/>
  </g>
</svg>