<?xml version="1.0" encoding="UTF-8"?>
<svg xmlns="http://www.w3.org/2000/svg" viewBox="0 0 291.84 401.49">
  <defs>
    <style>
      .cls-1 {
        fill: #009c4d;
      }

      .cls-2 {
        fill: #9f2a90;
      }

      .cls-3 {
        isolation: isolate;
      }

      .cls-4 {
        fill: #00a8d5;
      }

      .cls-5 {
        fill: #f05576;
      }

      .cls-6 {
        fill: #d2b02a;
      }

      .cls-7 {
        fill: #1c468a;
      }

      .cls-8 {
        opacity: .2;
      }

      .cls-8, .cls-9 {
        fill: #231f20;
        mix-blend-mode: multiply;
      }

      .cls-9 {
        opacity: .3;
      }
    </style>
  </defs>
  <g class="cls-3">
    <g id="Layer_1" data-name="Layer 1">
      <g>
        <g>
          <path class="cls-7" d="M38.12,293.35v-28.88h3.63v28.88h-3.63Z"/>
          <path class="cls-7" d="M50.84,272.47v2.75h.08c1.62-2.15,3.82-3.23,6.62-3.23,2.21,0,3.93.58,5.17,1.74,1.24,1.16,1.86,2.81,1.86,4.97v14.66h-3.27v-14.38c0-1.35-.42-2.39-1.25-3.13-.83-.74-1.99-1.11-3.47-1.11-1.67,0-3.04.54-4.12,1.62-1.08,1.08-1.62,2.46-1.62,4.16v12.84h-3.27v-20.88h3.27Z"/>
          <path class="cls-7" d="M67.97,275.14v-2.67h3.03v-6.58h3.27v6.58h4.04v2.67h-4.04v13.57c0,1.29.7,1.94,2.1,1.94.59,0,1.17-.09,1.74-.28h.12v2.83c-.89.19-1.76.28-2.62.28-3.07,0-4.6-1.35-4.6-4.04v-14.3h-3.03Z"/>
          <path class="cls-7" d="M91.23,293.92c-3.1,0-5.55-1.04-7.37-3.13s-2.73-4.71-2.73-7.86.92-5.7,2.77-7.82c1.84-2.11,4.22-3.17,7.13-3.17,3.07,0,5.44,1.07,7.11,3.21,1.67,2.14,2.5,4.99,2.5,8.54h-16.16c.13,2.21.79,4.01,1.96,5.39,1.17,1.39,2.77,2.08,4.79,2.08,3.12,0,5.05-1.43,5.78-4.28h3.19c-.48,2.24-1.51,3.97-3.07,5.19-1.56,1.23-3.53,1.84-5.9,1.84ZM95.39,276.31c-1.05-1.18-2.5-1.78-4.36-1.78s-3.33.62-4.42,1.86c-1.09,1.24-1.77,2.85-2.04,4.85h12.56c-.11-2.1-.69-3.74-1.74-4.93Z"/>
          <path class="cls-7" d="M107.91,272.47v3.47h.08c.67-1.1,1.55-2,2.62-2.69,1.08-.69,2.28-1.03,3.59-1.03.48,0,.93.08,1.33.24v3.15h-.12c-.4-.13-.89-.2-1.45-.2-1.67,0-3.1.59-4.28,1.76-1.19,1.17-1.78,2.7-1.78,4.58v11.59h-3.27v-20.88h3.27Z"/>
          <path class="cls-7" d="M122.57,272.47v2.75h.08c1.62-2.15,3.82-3.23,6.62-3.23,2.21,0,3.93.58,5.17,1.74,1.24,1.16,1.86,2.81,1.86,4.97v14.66h-3.27v-14.38c0-1.35-.42-2.39-1.25-3.13-.83-.74-1.99-1.11-3.47-1.11-1.67,0-3.04.54-4.12,1.62-1.08,1.08-1.62,2.46-1.62,4.16v12.84h-3.27v-20.88h3.27Z"/>
          <path class="cls-7" d="M157.83,293.55c-2.07,0-3.27-1.04-3.59-3.11h-.04c-1.72,2.21-4.04,3.31-6.95,3.31-2.07,0-3.77-.5-5.09-1.5-1.32-1-1.98-2.44-1.98-4.32,0-.97.15-1.81.46-2.52.31-.71.71-1.29,1.19-1.74.49-.44,1.15-.83,2-1.17.85-.34,1.66-.59,2.44-.77.78-.17,1.78-.36,2.99-.54.78-.11,1.34-.2,1.68-.26s.77-.17,1.31-.32c.54-.15.92-.32,1.13-.5s.42-.44.61-.77c.19-.32.28-.7.28-1.13,0-1.18-.41-2.09-1.23-2.73-.82-.63-1.97-.95-3.45-.95-3.37,0-5.1,1.54-5.21,4.6h-3.15c.05-2.13.79-3.84,2.2-5.13,1.41-1.29,3.45-1.94,6.12-1.94,5.14,0,7.71,2.21,7.71,6.62v9.94c0,.92.15,1.56.46,1.94.31.38.89.47,1.76.28h.12v2.38c-.54.21-1.13.32-1.78.32ZM147.98,291.25c2.02,0,3.58-.58,4.69-1.76,1.1-1.17,1.66-2.46,1.66-3.86v-3.55c-1,.62-2.58,1.13-4.77,1.53-.81.16-1.44.29-1.9.38-.46.09-.98.26-1.58.49-.59.23-1.04.48-1.33.75s-.55.63-.77,1.07-.32.96-.32,1.55c0,2.26,1.44,3.39,4.32,3.39Z"/>
          <path class="cls-7" d="M161.11,275.14v-2.67h3.03v-6.58h3.27v6.58h4.04v2.67h-4.04v13.57c0,1.29.7,1.94,2.1,1.94.59,0,1.17-.09,1.74-.28h.12v2.83c-.89.19-1.76.28-2.62.28-3.07,0-4.6-1.35-4.6-4.04v-14.3h-3.03Z"/>
          <path class="cls-7" d="M175.65,268.51v-4.04h3.27v4.04h-3.27ZM175.65,293.35v-20.88h3.27v20.88h-3.27Z"/>
          <path class="cls-7" d="M200.4,290.77c-1.83,2.1-4.27,3.15-7.31,3.15s-5.49-1.05-7.33-3.15c-1.84-2.1-2.77-4.71-2.77-7.84s.92-5.74,2.77-7.84c1.84-2.1,4.29-3.15,7.33-3.15s5.48,1.05,7.31,3.15c1.83,2.1,2.75,4.71,2.75,7.84s-.92,5.74-2.75,7.84ZM188.11,288.85c1.17,1.55,2.83,2.32,4.99,2.32s3.81-.77,4.97-2.32c1.16-1.55,1.74-3.52,1.74-5.92s-.59-4.41-1.76-5.96c-1.17-1.55-2.82-2.32-4.95-2.32s-3.82.78-4.99,2.34c-1.17,1.56-1.76,3.54-1.76,5.94s.59,4.37,1.76,5.92Z"/>
          <path class="cls-7" d="M210.5,272.47v2.75h.08c1.62-2.15,3.82-3.23,6.62-3.23,2.21,0,3.93.58,5.17,1.74,1.24,1.16,1.86,2.81,1.86,4.97v14.66h-3.27v-14.38c0-1.35-.42-2.39-1.25-3.13-.83-.74-1.99-1.11-3.47-1.11-1.67,0-3.04.54-4.12,1.62-1.08,1.08-1.62,2.46-1.62,4.16v12.84h-3.27v-20.88h3.27Z"/>
          <path class="cls-7" d="M245.76,293.55c-2.07,0-3.27-1.04-3.59-3.11h-.04c-1.72,2.21-4.04,3.31-6.95,3.31-2.07,0-3.77-.5-5.09-1.5-1.32-1-1.98-2.44-1.98-4.32,0-.97.15-1.81.46-2.52.31-.71.71-1.29,1.19-1.74.49-.44,1.15-.83,2-1.17.85-.34,1.66-.59,2.44-.77.78-.17,1.78-.36,2.99-.54.78-.11,1.34-.2,1.68-.26s.77-.17,1.31-.32c.54-.15.92-.32,1.13-.5s.42-.44.61-.77c.19-.32.28-.7.28-1.13,0-1.18-.41-2.09-1.23-2.73-.82-.63-1.97-.95-3.45-.95-3.37,0-5.1,1.54-5.21,4.6h-3.15c.05-2.13.79-3.84,2.2-5.13,1.41-1.29,3.45-1.94,6.12-1.94,5.14,0,7.71,2.21,7.71,6.62v9.94c0,.92.15,1.56.46,1.94.31.38.89.47,1.76.28h.12v2.38c-.54.21-1.13.32-1.78.32ZM235.91,291.25c2.02,0,3.58-.58,4.69-1.76,1.1-1.17,1.66-2.46,1.66-3.86v-3.55c-1,.62-2.58,1.13-4.77,1.53-.81.16-1.44.29-1.9.38-.46.09-.98.26-1.58.49-.59.23-1.04.48-1.33.75s-.55.63-.77,1.07-.32.96-.32,1.55c0,2.26,1.44,3.39,4.32,3.39Z"/>
          <path class="cls-7" d="M250.89,293.35v-28.88h3.27v28.88h-3.27Z"/>
          <path class="cls-7" d="M37.55,332.96v-28.88h12.68c3.29,0,5.8.9,7.55,2.71,1.72,1.78,2.58,3.97,2.58,6.58,0,2.75-.86,4.96-2.58,6.62-1.72,1.67-4.08,2.5-7.07,2.5h-7.11v10.46h-6.06ZM43.61,309.17v8.56h6.06c1.51,0,2.67-.38,3.47-1.15.81-.77,1.21-1.82,1.21-3.17s-.4-2.39-1.21-3.13c-.81-.74-1.94-1.11-3.39-1.11h-6.14Z"/>
          <path class="cls-7" d="M68.94,312.24v3.31h.12c.65-1.21,1.36-2.11,2.14-2.69.78-.58,1.76-.87,2.95-.87.57,0,1,.05,1.29.16v4.81h-.12c-1.86-.19-3.35.22-4.48,1.21-1.13,1-1.7,2.56-1.7,4.69v10.1h-5.49v-20.72h5.29Z"/>
          <path class="cls-7" d="M87.76,333.56c-3.34,0-5.96-1.03-7.88-3.09-1.91-2.06-2.87-4.69-2.87-7.9s.96-5.69,2.87-7.78,4.36-3.13,7.35-3.13c3.26,0,5.78,1.13,7.55,3.39,1.78,2.26,2.67,5.29,2.67,9.09h-15.03c.21,1.64.77,2.92,1.66,3.82.89.9,2.1,1.35,3.63,1.35,2.02,0,3.35-.85,4-2.54h5.41c-.4,1.94-1.43,3.55-3.07,4.85-1.64,1.29-3.74,1.94-6.3,1.94ZM87.31,315.91c-2.67,0-4.27,1.48-4.81,4.44h9.21c-.08-1.32-.53-2.39-1.33-3.21s-1.83-1.23-3.07-1.23Z"/>
          <path class="cls-7" d="M109.2,333.56c-2.96,0-5.28-.65-6.95-1.96-1.67-1.31-2.58-3.09-2.75-5.35h5.09c.35,2.29,1.86,3.43,4.52,3.43,1.21,0,2.15-.22,2.81-.65.66-.43.99-1.01.99-1.74,0-.27-.05-.51-.14-.73-.09-.21-.26-.41-.48-.59-.23-.17-.43-.32-.61-.42-.17-.11-.48-.21-.91-.32-.43-.11-.76-.19-.99-.24-.23-.05-.62-.13-1.17-.22s-.94-.17-1.15-.22c-1.13-.21-2.05-.44-2.77-.67-.71-.23-1.46-.57-2.24-1.01-.78-.44-1.37-1.05-1.76-1.82-.39-.77-.58-1.69-.58-2.77,0-2.15.79-3.8,2.36-4.93,1.58-1.13,3.6-1.7,6.08-1.7,2.67,0,4.76.61,6.28,1.84,1.52,1.23,2.39,2.9,2.61,5.03h-4.97c-.22-2.02-1.55-3.03-4-3.03-1.1,0-1.97.2-2.6.61-.63.4-.95.97-.95,1.7,0,.24.05.46.14.67.09.2.26.38.49.53.23.15.45.27.67.36.21.09.53.19.93.28.4.09.75.18,1.05.24.3.07.7.15,1.21.24.51.09.92.17,1.21.22.86.19,1.57.36,2.12.5.55.15,1.19.39,1.92.73.73.34,1.3.71,1.72,1.13.42.42.78.98,1.09,1.7.31.71.46,1.54.46,2.48,0,2.05-.8,3.67-2.4,4.87-1.6,1.2-3.71,1.8-6.32,1.8Z"/>
          <path class="cls-7" d="M131.01,333.56c-3.2,0-5.78-1.04-7.71-3.11-1.94-2.07-2.91-4.69-2.91-7.84s.95-5.76,2.85-7.84c1.9-2.07,4.4-3.11,7.49-3.11,2.61,0,4.74.69,6.38,2.06,1.64,1.37,2.65,3.22,3.03,5.53h-5.37c-.19-.94-.62-1.71-1.29-2.3-.67-.59-1.51-.89-2.5-.89-1.62,0-2.85.58-3.72,1.74-.86,1.16-1.29,2.76-1.29,4.81s.42,3.62,1.25,4.79c.83,1.17,2.06,1.76,3.67,1.76,2.4,0,3.78-1.17,4.16-3.51h5.29c-.19,2.29-1.12,4.18-2.79,5.67-1.67,1.49-3.85,2.24-6.54,2.24Z"/>
          <path class="cls-7" d="M149.03,304.08v10.86h.12c.78-1.13,1.64-1.96,2.56-2.48s2.08-.79,3.45-.79c2.13,0,3.85.72,5.17,2.16,1.32,1.44,1.98,3.31,1.98,5.59v13.53h-5.49v-12.72c0-1.13-.32-2.05-.95-2.75s-1.51-1.05-2.65-1.05c-1.21,0-2.21.44-3.01,1.33-.79.89-1.19,2.03-1.19,3.43v11.75h-5.49v-28.88h5.49Z"/>
          <path class="cls-7" d="M184.13,330.43c-2.02,2.09-4.62,3.13-7.8,3.13s-5.78-1.04-7.79-3.13c-2.02-2.09-3.03-4.69-3.03-7.82s1.01-5.73,3.03-7.82,4.62-3.13,7.79-3.13,5.78,1.04,7.8,3.13,3.03,4.69,3.03,7.82-1.01,5.73-3.03,7.82ZM176.33,329.36c1.64,0,2.93-.61,3.86-1.84.93-1.22,1.39-2.86,1.39-4.91s-.46-3.69-1.39-4.93c-.93-1.24-2.21-1.86-3.86-1.86s-2.96.61-3.88,1.84c-.92,1.23-1.37,2.88-1.37,4.95s.46,3.68,1.37,4.91c.92,1.23,2.21,1.84,3.88,1.84Z"/>
          <path class="cls-7" d="M208.12,330.43c-2.02,2.09-4.62,3.13-7.8,3.13s-5.78-1.04-7.79-3.13c-2.02-2.09-3.03-4.69-3.03-7.82s1.01-5.73,3.03-7.82,4.62-3.13,7.79-3.13,5.78,1.04,7.8,3.13,3.03,4.69,3.03,7.82-1.01,5.73-3.03,7.82ZM200.32,329.36c1.64,0,2.93-.61,3.86-1.84.93-1.22,1.39-2.86,1.39-4.91s-.46-3.69-1.39-4.93c-.93-1.24-2.21-1.86-3.86-1.86s-2.96.61-3.88,1.84c-.92,1.23-1.37,2.88-1.37,4.95s.46,3.68,1.37,4.91c.92,1.23,2.21,1.84,3.88,1.84Z"/>
          <path class="cls-7" d="M214.58,332.96v-28.88h5.49v28.88h-5.49Z"/>
          <path class="cls-7" d="M35.45,372.56l10.06-28.88h6.06l10.18,28.88h-6.1l-1.94-6.14h-10.42l-1.9,6.14h-5.94ZM47.25,353.62l-2.58,8.32h7.63l-2.58-8.32-1.17-4.44h-.08c-.48,1.94-.89,3.42-1.21,4.44Z"/>
          <path class="cls-7" d="M69.9,351.84v2.83h.12c1.43-2.26,3.47-3.39,6.14-3.39,2.13,0,3.85.72,5.17,2.16,1.32,1.44,1.98,3.31,1.98,5.59v13.53h-5.49v-12.72c0-1.13-.32-2.05-.95-2.75s-1.51-1.05-2.65-1.05c-1.21,0-2.21.44-3.01,1.33-.79.89-1.19,2.03-1.19,3.43v11.75h-5.49v-20.72h5.37Z"/>
          <path class="cls-7" d="M95.27,373.17c-2.61,0-4.73-.99-6.34-2.97-1.62-1.98-2.42-4.64-2.42-7.98s.83-5.86,2.48-7.9c1.66-2.03,3.78-3.05,6.36-3.05s4.54,1.02,5.86,3.07h.12v-10.66h5.49v28.88h-5.29v-2.71h-.08c-1.35,2.21-3.41,3.31-6.18,3.31ZM96.48,368.56c1.62,0,2.85-.55,3.7-1.66.85-1.1,1.27-2.63,1.27-4.56,0-4.42-1.6-6.62-4.81-6.62-1.48,0-2.61.59-3.39,1.78-.78,1.18-1.17,2.76-1.17,4.73s.38,3.58,1.15,4.69,1.85,1.66,3.25,1.66Z"/>
          <path class="cls-7" d="M128.79,370.04c-2.02,2.09-4.62,3.13-7.8,3.13s-5.78-1.04-7.79-3.13c-2.02-2.09-3.03-4.69-3.03-7.82s1.01-5.73,3.03-7.82,4.62-3.13,7.79-3.13,5.78,1.04,7.8,3.13,3.03,4.69,3.03,7.82-1.01,5.73-3.03,7.82ZM121,368.97c1.64,0,2.93-.61,3.86-1.84.93-1.22,1.39-2.86,1.39-4.91s-.46-3.69-1.39-4.93c-.93-1.24-2.21-1.86-3.86-1.86s-2.96.61-3.88,1.84c-.92,1.23-1.37,2.88-1.37,4.95s.46,3.68,1.37,4.91c.92,1.23,2.21,1.84,3.88,1.84Z"/>
          <path class="cls-7" d="M140.47,351.84v3.31h.12c.65-1.21,1.36-2.11,2.14-2.69.78-.58,1.76-.87,2.95-.87.57,0,1,.05,1.29.16v4.81h-.12c-1.86-.19-3.35.22-4.48,1.21-1.13,1-1.7,2.56-1.7,4.69v10.1h-5.49v-20.72h5.29Z"/>
          <path class="cls-7" d="M155.45,351.84v3.31h.12c.65-1.21,1.36-2.11,2.14-2.69.78-.58,1.76-.87,2.95-.87.57,0,1,.05,1.29.16v4.81h-.12c-1.86-.19-3.35.22-4.48,1.21-1.13,1-1.7,2.56-1.7,4.69v10.1h-5.49v-20.72h5.29Z"/>
          <path class="cls-7" d="M177.58,372.56c-.27-.35-.48-1.12-.65-2.3h-.08c-.59.89-1.35,1.58-2.26,2.06-.92.48-2.19.73-3.84.73-2.18,0-3.93-.55-5.25-1.66-1.32-1.1-1.98-2.67-1.98-4.69s.73-3.64,2.18-4.62c1.45-.98,3.5-1.66,6.14-2.04,1.94-.27,3.26-.54,3.96-.83.7-.28,1.05-.79,1.05-1.51s-.3-1.35-.89-1.8c-.59-.44-1.45-.67-2.58-.67-2.5,0-3.84.97-4,2.91h-4.89c.08-1.97.88-3.6,2.38-4.89,1.51-1.29,3.69-1.94,6.54-1.94,5.82,0,8.72,2.54,8.72,7.63v10.54c0,1.56.24,2.52.73,2.87v.2h-5.29ZM172.09,369.21c1.51,0,2.7-.39,3.57-1.17s1.31-1.71,1.31-2.79v-3.11c-.59.35-1.87.75-3.84,1.21-1.56.35-2.67.75-3.31,1.19s-.97,1.12-.97,2.04c0,1.75,1.08,2.62,3.23,2.62Z"/>
        </g>
        <g>
          <path class="cls-7" d="M163.02,60.84c1.91-3.92,2.99-8.32,2.99-12.97,0-16.33-13.24-29.57-29.57-29.57s-29.57,13.24-29.57,29.57c0,4.72,1.11,9.19,3.08,13.15,7.45-5.54,16.67-8.81,26.66-8.81s19,3.21,26.41,8.63Z"/>
          <path class="cls-4" d="M106.77,63.64c-2.88-1.65-6.21-2.59-9.76-2.59-10.87,0-19.69,8.81-19.69,19.69,0,9.14,6.23,16.82,14.67,19.04-.06-.93-.1-1.87-.1-2.82,0-13.23,5.75-25.12,14.88-33.31Z"/>
          <path class="cls-6" d="M181.35,96.94c0,.89-.03,1.78-.09,2.66,8.15-2.41,14.1-9.95,14.1-18.88,0-10.87-8.81-19.69-19.69-19.69-3.42,0-6.63.87-9.43,2.4,9.26,8.2,15.1,20.16,15.1,33.5Z"/>
          <path class="cls-5" d="M180.64,104.84c-3.35,18.82-18.46,33.56-37.47,36.35,4.47,9.08,13.82,15.33,24.63,15.33,15.15,0,27.44-12.28,27.44-27.44,0-10.51-5.91-19.64-14.59-24.25Z"/>
          <path class="cls-2" d="M92.54,104.52c-9.02,4.49-15.22,13.8-15.22,24.57,0,15.15,12.28,27.44,27.44,27.44,10.85,0,20.22-6.3,24.68-15.43-18.82-3.04-33.69-17.81-36.89-36.57Z"/>
          <g>
            <path class="cls-1" d="M167.8,101.65c4.64,0,9.01,1.16,12.84,3.19.31-1.71.52-3.46.62-5.24-1.77.52-3.64.81-5.58.81-10.87,0-19.69-8.81-19.69-19.69,0-7.45,4.14-13.94,10.25-17.28-1.03-.92-2.11-1.78-3.22-2.6-4.81,9.83-14.9,16.6-26.58,16.6s-21.65-6.69-26.49-16.42c-1.1.82-2.17,1.69-3.19,2.61,5.93,3.39,9.92,9.77,9.92,17.09,0,10.87-8.81,19.69-19.69,19.69-1.74,0-3.42-.23-5.02-.65.1,1.61.29,3.2.55,4.76,3.68-1.83,7.83-2.87,12.22-2.87,15.15,0,27.44,12.28,27.44,27.44,0,4.31-.99,8.38-2.76,12,2.34.38,4.74.58,7.19.58,2.23,0,4.41-.17,6.55-.48-1.8-3.65-2.81-7.76-2.81-12.1,0-15.15,12.28-27.44,27.44-27.44Z"/>
            <path class="cls-8" d="M167.8,101.65c4.64,0,9.01,1.16,12.84,3.19.31-1.71.52-3.46.62-5.24-1.77.52-3.64.81-5.58.81-10.87,0-19.69-8.81-19.69-19.69,0-7.45,4.14-13.94,10.25-17.28-1.03-.92-2.11-1.78-3.22-2.6-4.81,9.83-14.9,16.6-26.58,16.6s-21.65-6.69-26.49-16.42c-1.1.82-2.17,1.69-3.19,2.61,5.93,3.39,9.92,9.77,9.92,17.09,0,10.87-8.81,19.69-19.69,19.69-1.74,0-3.42-.23-5.02-.65.1,1.61.29,3.2.55,4.76,3.68-1.83,7.83-2.87,12.22-2.87,15.15,0,27.44,12.28,27.44,27.44,0,4.31-.99,8.38-2.76,12,2.34.38,4.74.58,7.19.58,2.23,0,4.41-.17,6.55-.48-1.8-3.65-2.81-7.76-2.81-12.1,0-15.15,12.28-27.44,27.44-27.44Z"/>
          </g>
          <g>
            <path class="cls-7" d="M136.44,77.45c11.68,0,21.77-6.77,26.58-16.6-7.4-5.42-16.53-8.63-26.41-8.63s-19.22,3.28-26.66,8.81c4.84,9.73,14.88,16.42,26.49,16.42Z"/>
            <path class="cls-9" d="M136.44,77.45c11.68,0,21.77-6.77,26.58-16.6-7.4-5.42-16.53-8.63-26.41-8.63s-19.22,3.28-26.66,8.81c4.84,9.73,14.88,16.42,26.49,16.42Z"/>
          </g>
          <g>
            <path class="cls-1" d="M116.69,80.73c0-7.32-4-13.7-9.92-17.09-9.13,8.19-14.88,20.08-14.88,33.31,0,.95.04,1.89.1,2.82,1.6.42,3.28.65,5.02.65,10.87,0,19.69-8.81,19.69-19.69Z"/>
            <path class="cls-9" d="M116.69,80.73c0-7.32-4-13.7-9.92-17.09-9.13,8.19-14.88,20.08-14.88,33.31,0,.95.04,1.89.1,2.82,1.6.42,3.28.65,5.02.65,10.87,0,19.69-8.81,19.69-19.69Z"/>
          </g>
          <g>
            <path class="cls-6" d="M155.99,80.73c0,10.87,8.81,19.69,19.69,19.69,1.94,0,3.81-.29,5.58-.81.05-.88.09-1.77.09-2.66,0-13.34-5.84-25.3-15.1-33.5-6.11,3.34-10.25,9.83-10.25,17.28Z"/>
            <path class="cls-9" d="M155.99,80.73c0,10.87,8.81,19.69,19.69,19.69,1.94,0,3.81-.29,5.58-.81.05-.88.09-1.77.09-2.66,0-13.34-5.84-25.3-15.1-33.5-6.11,3.34-10.25,9.83-10.25,17.28Z"/>
          </g>
          <g>
            <path class="cls-5" d="M180.64,104.84c-3.83-2.03-8.2-3.19-12.84-3.19-15.15,0-27.44,12.28-27.44,27.44,0,4.35,1.01,8.45,2.81,12.1,19.01-2.79,34.11-17.53,37.47-36.35Z"/>
            <path class="cls-9" d="M180.64,104.84c-3.83-2.03-8.2-3.19-12.84-3.19-15.15,0-27.44,12.28-27.44,27.44,0,4.35,1.01,8.45,2.81,12.1,19.01-2.79,34.11-17.53,37.47-36.35Z"/>
          </g>
          <g>
            <path class="cls-2" d="M104.75,101.65c-4.39,0-8.54,1.04-12.22,2.87,3.2,18.76,18.08,33.53,36.89,36.57,1.77-3.63,2.76-7.7,2.76-12,0-15.15-12.28-27.44-27.44-27.44Z"/>
            <path class="cls-9" d="M104.75,101.65c-4.39,0-8.54,1.04-12.22,2.87,3.2,18.76,18.08,33.53,36.89,36.57,1.77-3.63,2.76-7.7,2.76-12,0-15.15-12.28-27.44-27.44-27.44Z"/>
          </g>
        </g>
        <g>
          <path class="cls-7" d="M100.48,243.65c-.5,0-.78,0-1.05,0-5.46,0-10.92-.02-16.37.02-.81,0-1.26-.28-1.67-.91-1.45-2.23-2.92-4.46-4.4-6.67-2.56-3.82-5.14-7.63-7.69-11.45-1.72-2.56-3.41-5.14-5.11-7.7-.76-1.15-1.52-2.29-2.28-3.44-.29-.44-.59-.31-.9,0-1.7,1.72-3.4,3.44-5.1,5.16-.87.89-1.73,1.79-2.62,2.66-.36.35-.52.71-.52,1.21.02,6.75,0,13.51.03,20.26,0,.68-.21.86-.87.86-4.35-.02-8.7-.01-13.04-.01-.91,0-.9,0-.9-.94,0-22.02,0-44.05-.01-66.07,0-.62.16-.79.77-.79,4.42.02,8.83.02,13.25,0,.59,0,.81.15.8.78-.02,8.81-.02,17.63-.02,26.44,0,.23.14.45.21.68.22-.11.49-.16.64-.32,4.05-4.31,8.08-8.64,12.13-12.95,4.23-4.5,8.47-8.97,12.71-13.46.19-.2.37-.41.54-.63.31-.38.69-.53,1.2-.53,5.62.02,11.24.01,16.86.01.19,0,.39.03.58.05.05.08.11.15.16.23-.9.84-1.83,1.64-2.7,2.51-3.62,3.64-7.23,7.29-10.84,10.94-3.64,3.69-7.28,7.38-10.92,11.06-.48.49-.97.98-1.47,1.45-.32.3-.4.55-.11.95,1.65,2.29,3.29,4.59,4.92,6.9,1.47,2.09,2.92,4.19,4.39,6.27,1.9,2.69,3.81,5.36,5.7,8.05,2.06,2.91,4.09,5.83,6.15,8.74,2.05,2.89,4.11,5.77,6.16,8.65.42.59.83,1.19,1.38,1.97Z"/>
          <path class="cls-7" d="M208.6,245.42c-1.25,0-2.5-.02-3.75,0-1.86.04-3.67-.25-5.49-.62-2.63-.53-5.14-1.39-7.52-2.62-3.18-1.64-5.88-3.87-7.91-6.82-1.45-2.1-2.32-4.46-2.84-6.97-.47-2.22-.54-4.47-.29-6.69.46-4.18,2.15-7.81,5.33-10.67,2.49-2.24,5.34-3.84,8.52-4.81,3.48-1.06,6.99-2,10.48-3,1.66-.47,3.31-.96,4.96-1.45,2.07-.62,4.14-1.2,6.19-1.88,1.83-.61,3.45-1.57,4.3-3.42.94-2.03.77-4.06-.28-5.99-1.23-2.26-3.32-3.32-5.71-3.96-2.56-.68-5.14-.58-7.7-.2-2.65.4-5.13,1.27-7.04,3.31-1.53,1.63-2.3,3.59-2.54,5.77-.08.74-.36.93-1.09.92-4.12-.04-8.23-.02-12.35-.02-.89,0-.89,0-.86-.89.09-2.77.6-5.46,1.72-8,1.72-3.87,4.58-6.71,8.22-8.81,2.39-1.38,4.95-2.39,7.64-2.93,4.61-.94,9.26-1.46,13.98-.72,2.31.37,4.59.8,6.77,1.62,2.4.9,4.65,2.09,6.7,3.66,1.98,1.51,3.68,3.27,4.92,5.44,1,1.74,1.82,3.57,2.02,5.6.17,1.74.39,3.5.31,5.24-.22,5.26-2.61,9.38-6.88,12.45-2.38,1.71-5.05,2.69-7.83,3.49-2.06.59-4.09,1.26-6.15,1.86-1.92.56-3.85,1.07-5.77,1.63-3.13.92-6.33,1.65-9.18,3.33-1.67.98-3.18,2.13-4,3.96-.64,1.43-.69,2.89-.31,4.44.69,2.77,2.6,4.28,5.07,5.29,3.71,1.52,7.55,1.74,11.49,1.2,2.67-.37,5.16-1.19,7.3-2.84,2.32-1.78,3.75-4.14,4.18-7.07.09-.59.21-1.18.22-1.78,0-.57.2-.75.77-.75,3.91.02,7.82.01,11.73.01,1.53,0,1.47,0,1.55,1.52.12,2.33-.3,4.58-1.05,6.73-1.14,3.28-3.02,6.12-5.63,8.46-1.99,1.79-4.19,3.24-6.62,4.31-1.55.68-3.19,1.16-4.81,1.69-3.51,1.15-7.15,1.03-10.77.97Z"/>
          <path class="cls-7" d="M172.91,209.49c0,11.06,0,22.12.01,33.17,0,.6-.22.77-.77.77-3.7,0-7.4,0-11.1,0-.56,0-.82-.11-.77-.8.09-1.27.03-2.54.04-3.82,0-.3.06-.6.04-.9-.01-.2-.1-.39-.16-.59-.2.11-.46.18-.59.34-.51.65-.94,1.36-1.48,1.98-2.02,2.35-4.63,3.71-7.6,4.49-2.65.7-5.36.79-8.03.51-5.43-.56-9.95-2.94-13.39-7.25-1.95-2.45-3.48-5.16-4.37-8.14-.65-2.17-1.05-4.44-1.34-6.7-.25-1.98-.3-4.01-.23-6.01.09-2.65.53-5.26,1.33-7.82.68-2.17,1.58-4.22,2.81-6.11,1.79-2.76,3.98-5.14,6.86-6.85,1.68-1,3.45-1.78,5.32-2.17,3.06-.64,6.17-.73,9.29-.19,2.48.43,4.72,1.33,6.74,2.8,1.35.98,2.52,2.14,3.4,3.57.11.18.39.25.59.37.08-.19.23-.39.23-.58,0-7.7,0-15.41-.03-23.11,0-.65.15-.88.84-.87,3.86.03,7.72.02,11.59,0,.53,0,.78.1.78.72-.02,11.06-.01,22.12-.01,33.17h0ZM136.41,218.52c-.12,4.28.76,8.11,3.08,11.53,2.08,3.06,4.91,4.79,8.68,4.72,1-.02,2.01-.13,3.01-.28,3.16-.47,5.32-2.31,6.83-5.03,1.32-2.39,1.8-5.01,2.04-7.68.27-3.05.17-6.09-.53-9.09-.54-2.33-1.39-4.51-3.02-6.33-1.5-1.67-3.35-2.73-5.54-3.11-1.49-.26-3-.37-4.53-.09-1.4.26-2.74.61-3.95,1.35-2.87,1.77-4.37,4.53-5.28,7.63-.62,2.13-.9,4.34-.78,6.38Z"/>
          <path class="cls-7" d="M118.01,200.24c0,7.89,0,15.77.01,23.66,0,.66-.16.87-.84.86-3.81-.03-7.63-.02-11.45-.02-.98,0-.95,0-.95-.99.02-3.82,0-7.63,0-11.45,0-11.56,0-23.13,0-34.69,0-.3,0-.6,0-.9-.04-.95-.03-.97.9-.97,3.84,0,7.68.01,11.51-.01.65,0,.81.23.81.85-.02,7.89-.01,15.77-.01,23.66Z"/>
          <path class="cls-7" d="M111.44,232.65c1.94,0,3.88.02,5.82-.01.56,0,.76.15.76.74-.02,3.17-.02,6.33,0,9.5,0,.54-.16.72-.71.71-3.91-.02-7.81,0-11.72-.01-.82,0-.82-.06-.81-.88.02-3.1.02-6.19-.02-9.29,0-.59.15-.78.72-.77,1.99.02,3.98,0,5.96,0Z"/>
        </g>
      </g>
    </g>
  </g>
</svg>