<?xml version="1.0" encoding="UTF-8"?>
<svg id="Layer_1" data-name="Layer 1" xmlns="http://www.w3.org/2000/svg" viewBox="0 0 754.73 197.18">
  <defs>
    <style>
      .cls-1 {
        fill: #58595b;
      }

      .cls-2 {
        fill: #231f20;
      }

      .cls-3 {
        fill: #414042;
      }
    </style>
  </defs>
  <g>
    <path class="cls-2" d="M507.29,79.84v-25.6h3.22v25.6h-3.22Z"/>
    <path class="cls-2" d="M518.57,61.33v2.43h.07c1.43-1.91,3.39-2.86,5.87-2.86,1.96,0,3.49.51,4.58,1.54,1.1,1.03,1.65,2.5,1.65,4.41v13h-2.9v-12.75c0-1.19-.37-2.12-1.11-2.77-.74-.66-1.77-.99-3.08-.99-1.48,0-2.7.48-3.65,1.43s-1.43,2.18-1.43,3.69v11.39h-2.9v-18.51h2.9Z"/>
    <path class="cls-2" d="M533.75,63.69v-2.36h2.69v-5.84h2.9v5.84h3.58v2.36h-3.58v12.03c0,1.15.62,1.72,1.86,1.72.53,0,1.04-.08,1.54-.25h.11v2.51c-.79.17-1.56.25-2.33.25-2.72,0-4.08-1.19-4.08-3.58v-12.68h-2.69Z"/>
    <path class="cls-2" d="M554.38,80.34c-2.75,0-4.92-.92-6.54-2.78-1.61-1.85-2.42-4.17-2.42-6.96s.82-5.05,2.45-6.93c1.63-1.87,3.74-2.81,6.32-2.81,2.72,0,4.82.95,6.3,2.85,1.48,1.9,2.22,4.42,2.22,7.57h-14.32c.12,1.96.7,3.55,1.74,4.78,1.04,1.23,2.45,1.84,4.24,1.84,2.77,0,4.48-1.27,5.12-3.8h2.83c-.43,1.98-1.34,3.52-2.72,4.6-1.38,1.09-3.13,1.63-5.23,1.63ZM558.07,64.73c-.93-1.05-2.22-1.58-3.87-1.58s-2.95.55-3.92,1.65c-.97,1.1-1.57,2.53-1.81,4.3h11.14c-.1-1.86-.61-3.32-1.54-4.37Z"/>
    <path class="cls-2" d="M569.17,61.33v3.08h.07c.6-.98,1.37-1.77,2.33-2.38.96-.61,2.02-.91,3.19-.91.43,0,.82.07,1.18.21v2.79h-.11c-.36-.12-.79-.18-1.29-.18-1.48,0-2.75.52-3.8,1.56-1.05,1.04-1.58,2.39-1.58,4.06v10.28h-2.9v-18.51h2.9Z"/>
    <path class="cls-2" d="M582.16,61.33v2.43h.07c1.43-1.91,3.39-2.86,5.87-2.86,1.96,0,3.49.51,4.58,1.54,1.1,1.03,1.65,2.5,1.65,4.41v13h-2.9v-12.75c0-1.19-.37-2.12-1.11-2.77-.74-.66-1.77-.99-3.08-.99-1.48,0-2.7.48-3.65,1.43s-1.43,2.18-1.43,3.69v11.39h-2.9v-18.51h2.9Z"/>
    <path class="cls-2" d="M613.42,80.02c-1.84,0-2.9-.92-3.19-2.76h-.04c-1.53,1.96-3.58,2.94-6.16,2.94-1.84,0-3.34-.44-4.51-1.32-1.17-.88-1.75-2.16-1.75-3.83,0-.86.14-1.6.41-2.24.27-.63.63-1.15,1.06-1.54s1.02-.74,1.77-1.04,1.47-.53,2.17-.68c.69-.16,1.58-.32,2.65-.48.69-.09,1.19-.17,1.49-.23.3-.06.69-.16,1.16-.29.48-.13.81-.28,1-.45s.37-.39.54-.68c.17-.29.25-.62.25-1,0-1.05-.36-1.86-1.09-2.42-.73-.56-1.75-.84-3.06-.84-2.98,0-4.52,1.36-4.62,4.08h-2.79c.05-1.89.7-3.4,1.95-4.55,1.25-1.15,3.06-1.72,5.42-1.72,4.56,0,6.84,1.96,6.84,5.87v8.81c0,.81.14,1.38.41,1.72s.79.42,1.56.25h.11v2.11c-.48.19-1,.29-1.58.29ZM604.69,77.98c1.79,0,3.17-.52,4.15-1.56s1.47-2.18,1.47-3.42v-3.15c-.88.55-2.29,1-4.23,1.36-.72.14-1.28.26-1.68.34-.41.08-.87.23-1.4.43-.53.2-.92.42-1.18.66-.26.24-.49.55-.68.95-.19.39-.29.85-.29,1.38,0,2,1.28,3.01,3.83,3.01Z"/>
    <path class="cls-2" d="M616.32,63.69v-2.36h2.69v-5.84h2.9v5.84h3.58v2.36h-3.58v12.03c0,1.15.62,1.72,1.86,1.72.53,0,1.04-.08,1.54-.25h.11v2.51c-.79.17-1.56.25-2.33.25-2.72,0-4.08-1.19-4.08-3.58v-12.68h-2.69Z"/>
    <path class="cls-2" d="M629.21,57.82v-3.58h2.9v3.58h-2.9ZM629.21,79.84v-18.51h2.9v18.51h-2.9Z"/>
    <path class="cls-2" d="M651.16,77.55c-1.62,1.86-3.78,2.79-6.48,2.79s-4.86-.93-6.5-2.79c-1.64-1.86-2.45-4.18-2.45-6.95s.82-5.08,2.45-6.95c1.63-1.86,3.8-2.79,6.5-2.79s4.86.93,6.48,2.79c1.62,1.86,2.43,4.18,2.43,6.95s-.81,5.08-2.43,6.95ZM640.26,75.85c1.04,1.37,2.51,2.06,4.42,2.06s3.38-.69,4.4-2.06c1.03-1.37,1.54-3.12,1.54-5.25s-.52-3.91-1.56-5.28c-1.04-1.37-2.5-2.06-4.39-2.06s-3.38.69-4.42,2.08c-1.04,1.38-1.56,3.14-1.56,5.26s.52,3.87,1.56,5.25Z"/>
    <path class="cls-2" d="M660.12,61.33v2.43h.07c1.43-1.91,3.39-2.86,5.87-2.86,1.96,0,3.49.51,4.58,1.54,1.1,1.03,1.65,2.5,1.65,4.41v13h-2.9v-12.75c0-1.19-.37-2.12-1.11-2.77-.74-.66-1.77-.99-3.08-.99-1.48,0-2.7.48-3.65,1.43s-1.43,2.18-1.43,3.69v11.39h-2.9v-18.51h2.9Z"/>
    <path class="cls-2" d="M691.38,80.02c-1.84,0-2.9-.92-3.19-2.76h-.04c-1.53,1.96-3.58,2.94-6.16,2.94-1.84,0-3.34-.44-4.51-1.32-1.17-.88-1.75-2.16-1.75-3.83,0-.86.14-1.6.41-2.24.27-.63.63-1.15,1.06-1.54s1.02-.74,1.77-1.04,1.47-.53,2.17-.68c.69-.16,1.58-.32,2.65-.48.69-.09,1.19-.17,1.49-.23.3-.06.69-.16,1.16-.29.48-.13.81-.28,1-.45s.37-.39.54-.68c.17-.29.25-.62.25-1,0-1.05-.36-1.86-1.09-2.42-.73-.56-1.75-.84-3.06-.84-2.98,0-4.52,1.36-4.62,4.08h-2.79c.05-1.89.7-3.4,1.95-4.55,1.25-1.15,3.06-1.72,5.42-1.72,4.56,0,6.84,1.96,6.84,5.87v8.81c0,.81.14,1.38.41,1.72s.79.42,1.56.25h.11v2.11c-.48.19-1,.29-1.58.29ZM682.64,77.98c1.79,0,3.17-.52,4.15-1.56s1.47-2.18,1.47-3.42v-3.15c-.88.55-2.29,1-4.23,1.36-.72.14-1.28.26-1.68.34-.41.08-.87.23-1.4.43-.53.2-.92.42-1.18.66-.26.24-.49.55-.68.95-.19.39-.29.85-.29,1.38,0,2,1.28,3.01,3.83,3.01Z"/>
    <path class="cls-2" d="M695.92,79.84v-25.6h2.9v25.6h-2.9Z"/>
    <path class="cls-2" d="M506.79,114.95v-25.6h11.24c2.91,0,5.14.8,6.7,2.4,1.53,1.58,2.29,3.52,2.29,5.84,0,2.43-.76,4.39-2.29,5.87-1.53,1.48-3.62,2.22-6.27,2.22h-6.3v9.27h-5.37ZM512.16,93.86v7.59h5.37c1.34,0,2.36-.34,3.08-1.02.72-.68,1.07-1.62,1.07-2.81s-.36-2.12-1.07-2.77c-.72-.66-1.72-.99-3.01-.99h-5.44Z"/>
    <path class="cls-2" d="M534.61,96.58v2.94h.11c.57-1.07,1.21-1.87,1.9-2.38.69-.51,1.56-.77,2.61-.77.5,0,.88.05,1.15.14v4.26h-.11c-1.65-.17-2.97.19-3.97,1.07-1,.88-1.5,2.27-1.5,4.15v8.95h-4.87v-18.37h4.69Z"/>
    <path class="cls-2" d="M551.3,115.49c-2.96,0-5.29-.91-6.98-2.74-1.7-1.83-2.54-4.16-2.54-7s.85-5.04,2.54-6.89c1.69-1.85,3.87-2.77,6.52-2.77,2.89,0,5.12,1,6.7,3.01,1.58,2,2.36,4.69,2.36,8.06h-13.32c.19,1.46.68,2.58,1.47,3.38.79.8,1.86,1.2,3.22,1.2,1.79,0,2.97-.75,3.55-2.26h4.8c-.36,1.72-1.27,3.15-2.72,4.3-1.46,1.15-3.32,1.72-5.59,1.72ZM550.9,99.84c-2.36,0-3.78,1.31-4.26,3.94h8.17c-.07-1.17-.47-2.12-1.18-2.85-.72-.73-1.62-1.09-2.72-1.09Z"/>
    <path class="cls-2" d="M570.31,115.49c-2.63,0-4.68-.58-6.16-1.74-1.48-1.16-2.29-2.74-2.43-4.75h4.51c.31,2.03,1.65,3.04,4.01,3.04,1.07,0,1.9-.19,2.49-.57s.88-.9.88-1.54c0-.24-.04-.45-.13-.64s-.23-.36-.43-.52-.38-.28-.54-.38c-.16-.09-.42-.19-.81-.29s-.67-.17-.88-.21c-.2-.05-.55-.11-1.04-.2-.49-.08-.83-.15-1.02-.2-1-.19-1.82-.39-2.45-.59-.63-.2-1.3-.5-1.99-.89-.69-.39-1.21-.93-1.56-1.61-.35-.68-.52-1.5-.52-2.45,0-1.91.7-3.37,2.09-4.37,1.4-1,3.19-1.5,5.39-1.5,2.36,0,4.22.54,5.57,1.63,1.35,1.09,2.12,2.57,2.31,4.46h-4.4c-.19-1.79-1.37-2.69-3.54-2.69-.98,0-1.75.18-2.31.54-.56.36-.84.86-.84,1.5,0,.21.04.41.13.59.08.18.23.33.43.47.2.13.4.24.59.32.19.08.46.17.82.25.36.08.67.16.93.21.26.06.62.13,1.07.21.45.08.81.15,1.07.2.76.17,1.39.32,1.88.45.49.13,1.06.35,1.7.64.64.3,1.15.63,1.52,1,.37.37.69.87.97,1.5.27.63.41,1.37.41,2.2,0,1.81-.71,3.25-2.13,4.32-1.42,1.06-3.29,1.59-5.6,1.59Z"/>
    <path class="cls-2" d="M589.65,115.49c-2.84,0-5.12-.92-6.84-2.76-1.72-1.84-2.58-4.15-2.58-6.95s.84-5.11,2.52-6.95c1.68-1.84,3.9-2.76,6.64-2.76,2.32,0,4.2.61,5.66,1.83,1.46,1.22,2.35,2.85,2.69,4.91h-4.76c-.17-.83-.55-1.52-1.15-2.04-.6-.52-1.34-.79-2.22-.79-1.43,0-2.53.51-3.29,1.54-.76,1.03-1.15,2.45-1.15,4.26s.37,3.21,1.11,4.24c.74,1.04,1.83,1.56,3.26,1.56,2.12,0,3.35-1.04,3.69-3.12h4.69c-.17,2.03-.99,3.71-2.47,5.03-1.48,1.33-3.41,1.99-5.8,1.99Z"/>
    <path class="cls-2" d="M605.62,89.35v9.63h.11c.69-1,1.45-1.74,2.27-2.2.82-.47,1.84-.7,3.06-.7,1.88,0,3.41.64,4.58,1.92,1.17,1.28,1.75,2.93,1.75,4.96v12h-4.87v-11.28c0-1-.28-1.81-.84-2.43s-1.34-.93-2.35-.93c-1.07,0-1.96.39-2.67,1.18-.71.79-1.06,1.8-1.06,3.04v10.42h-4.87v-25.6h4.87Z"/>
    <path class="cls-2" d="M636.73,112.71c-1.79,1.85-4.09,2.77-6.91,2.77s-5.12-.92-6.91-2.77c-1.79-1.85-2.69-4.16-2.69-6.93s.89-5.08,2.69-6.93c1.79-1.85,4.09-2.77,6.91-2.77s5.12.92,6.91,2.77c1.79,1.85,2.69,4.16,2.69,6.93s-.89,5.08-2.69,6.93ZM629.82,111.76c1.46,0,2.6-.54,3.42-1.63.82-1.09,1.24-2.54,1.24-4.35s-.41-3.27-1.24-4.37c-.82-1.1-1.96-1.65-3.42-1.65s-2.63.54-3.44,1.63-1.22,2.55-1.22,4.39.41,3.26,1.22,4.35c.81,1.09,1.96,1.63,3.44,1.63Z"/>
    <path class="cls-2" d="M658,112.71c-1.79,1.85-4.09,2.77-6.91,2.77s-5.12-.92-6.91-2.77c-1.79-1.85-2.69-4.16-2.69-6.93s.89-5.08,2.69-6.93c1.79-1.85,4.09-2.77,6.91-2.77s5.12.92,6.91,2.77c1.79,1.85,2.69,4.16,2.69,6.93s-.89,5.08-2.69,6.93ZM651.09,111.76c1.46,0,2.6-.54,3.42-1.63.82-1.09,1.24-2.54,1.24-4.35s-.41-3.27-1.24-4.37c-.82-1.1-1.96-1.65-3.42-1.65s-2.63.54-3.44,1.63-1.22,2.55-1.22,4.39.41,3.26,1.22,4.35c.81,1.09,1.96,1.63,3.44,1.63Z"/>
    <path class="cls-2" d="M663.73,114.95v-25.6h4.87v25.6h-4.87Z"/>
    <path class="cls-2" d="M504.93,150.06l8.92-25.6h5.37l9.02,25.6h-5.41l-1.72-5.44h-9.24l-1.68,5.44h-5.26ZM515.38,133.27l-2.29,7.38h6.77l-2.29-7.38-1.04-3.94h-.07c-.43,1.72-.79,3.03-1.07,3.94Z"/>
    <path class="cls-2" d="M535.47,131.69v2.51h.11c1.26-2,3.08-3.01,5.44-3.01,1.88,0,3.41.64,4.58,1.92,1.17,1.28,1.75,2.93,1.75,4.96v12h-4.87v-11.28c0-1-.28-1.81-.84-2.44-.56-.62-1.34-.93-2.35-.93-1.07,0-1.96.39-2.67,1.18-.71.79-1.06,1.8-1.06,3.04v10.42h-4.87v-18.37h4.76Z"/>
    <path class="cls-2" d="M557.96,150.6c-2.32,0-4.19-.88-5.62-2.63-1.43-1.75-2.15-4.11-2.15-7.07s.73-5.2,2.2-7c1.47-1.8,3.35-2.7,5.64-2.7s4.02.91,5.19,2.72h.11v-9.45h4.87v25.6h-4.69v-2.4h-.07c-1.19,1.96-3.02,2.94-5.48,2.94ZM559.03,146.52c1.43,0,2.53-.49,3.28-1.47s1.13-2.33,1.13-4.05c0-3.92-1.42-5.87-4.26-5.87-1.31,0-2.32.53-3.01,1.58-.69,1.05-1.04,2.45-1.04,4.19s.34,3.18,1.02,4.15c.68.98,1.64,1.47,2.88,1.47Z"/>
    <path class="cls-2" d="M587.68,147.82c-1.79,1.85-4.09,2.78-6.91,2.78s-5.12-.92-6.91-2.78c-1.79-1.85-2.69-4.16-2.69-6.93s.89-5.08,2.69-6.93c1.79-1.85,4.09-2.78,6.91-2.78s5.12.93,6.91,2.78c1.79,1.85,2.69,4.16,2.69,6.93s-.89,5.08-2.69,6.93ZM580.77,146.88c1.46,0,2.6-.54,3.42-1.63.82-1.09,1.24-2.54,1.24-4.35s-.41-3.27-1.24-4.37c-.82-1.1-1.96-1.65-3.42-1.65s-2.63.54-3.44,1.63c-.81,1.09-1.22,2.55-1.22,4.39s.41,3.26,1.22,4.35c.81,1.09,1.96,1.63,3.44,1.63Z"/>
    <path class="cls-2" d="M598.03,131.69v2.94h.11c.57-1.07,1.21-1.87,1.9-2.38.69-.51,1.56-.77,2.61-.77.5,0,.88.05,1.15.14v4.26h-.11c-1.65-.17-2.97.19-3.97,1.07s-1.5,2.27-1.5,4.15v8.95h-4.87v-18.37h4.69Z"/>
    <path class="cls-2" d="M611.31,131.69v2.94h.11c.57-1.07,1.21-1.87,1.9-2.38.69-.51,1.56-.77,2.61-.77.5,0,.88.05,1.15.14v4.26h-.11c-1.65-.17-2.97.19-3.97,1.07s-1.5,2.27-1.5,4.15v8.95h-4.87v-18.37h4.69Z"/>
    <path class="cls-2" d="M630.93,150.06c-.24-.31-.43-.99-.57-2.04h-.07c-.53.79-1.19,1.4-2.01,1.83s-1.95.64-3.4.64c-1.93,0-3.49-.49-4.66-1.47s-1.75-2.36-1.75-4.15.64-3.23,1.93-4.1,3.1-1.47,5.44-1.81c1.72-.24,2.89-.48,3.51-.73.62-.25.93-.7.93-1.34s-.26-1.2-.79-1.59c-.53-.39-1.29-.59-2.29-.59-2.22,0-3.4.86-3.54,2.58h-4.33c.07-1.74.78-3.19,2.11-4.33s3.27-1.72,5.8-1.72c5.16,0,7.73,2.26,7.73,6.77v9.35c0,1.38.21,2.23.64,2.54v.18h-4.69ZM626.06,147.09c1.34,0,2.39-.35,3.17-1.04.78-.69,1.16-1.52,1.16-2.47v-2.76c-.53.31-1.66.67-3.4,1.07-1.38.31-2.36.66-2.94,1.06-.57.39-.86,1-.86,1.81,0,1.55.95,2.33,2.86,2.33Z"/>
  </g>
  <g>
    <path class="cls-2" d="M106.41,67.38c-8.86,0-17.04,2.91-23.64,7.81-1.75-3.51-2.73-7.47-2.73-11.66,0-14.48,11.74-26.22,26.22-26.22s26.22,11.74,26.22,26.22c0,4.12-.96,8.02-2.65,11.5-6.56-4.81-14.65-7.65-23.41-7.65ZM79.94,77.51c-2.55-1.46-5.51-2.3-8.66-2.3-9.64,0-17.45,7.81-17.45,17.45,0,8.1,5.52,14.91,13,16.88-.05-.83-.09-1.66-.09-2.5,0-11.73,5.1-22.27,13.19-29.53ZM146.06,107.03c0,.79-.03,1.58-.08,2.36,7.23-2.13,12.5-8.82,12.5-16.74,0-9.64-7.81-17.45-17.45-17.45-3.03,0-5.88.77-8.36,2.13,8.21,7.27,13.39,17.87,13.39,29.7ZM145.43,114.04c-2.97,16.68-16.37,29.75-33.22,32.23,3.97,8.05,12.25,13.59,21.83,13.59,13.43,0,24.32-10.89,24.32-24.32,0-9.32-5.24-17.41-12.94-21.5ZM67.33,113.75c-8,3.98-13.49,12.24-13.49,21.78,0,13.43,10.89,24.32,24.32,24.32,9.62,0,17.93-5.58,21.88-13.68-16.68-2.69-29.87-15.79-32.71-32.42Z"/>
    <path class="cls-1" d="M134.05,111.21c4.11,0,7.99,1.03,11.39,2.83.27-1.52.46-3.07.55-4.64-1.57.46-3.23.72-4.95.72-9.64,0-17.45-7.81-17.45-17.45,0-6.61,3.67-12.36,9.09-15.32-.92-.81-1.87-1.58-2.86-2.31-4.26,8.72-13.21,14.72-23.56,14.72s-19.19-5.93-23.48-14.56c-.98.73-1.92,1.5-2.83,2.31,5.25,3.01,8.8,8.66,8.8,15.15,0,9.64-7.81,17.45-17.45,17.45-1.54,0-3.03-.2-4.45-.57.09,1.43.26,2.83.49,4.22,3.26-1.63,6.94-2.54,10.83-2.54,13.43,0,24.32,10.89,24.32,24.32,0,3.82-.88,7.43-2.45,10.64,2.07.34,4.2.52,6.37.52,1.97,0,3.91-.15,5.81-.43-1.59-3.24-2.49-6.88-2.49-10.73,0-13.43,10.89-24.32,24.32-24.32Z"/>
    <path class="cls-3" d="M82.77,75.19c6.6-4.91,14.78-7.81,23.64-7.81s16.85,2.84,23.41,7.65c-4.26,8.72-13.21,14.72-23.56,14.72s-19.19-5.93-23.48-14.56ZM88.74,92.66c0-6.49-3.54-12.14-8.8-15.15-8.1,7.26-13.19,17.8-13.19,29.53,0,.84.03,1.67.09,2.5,1.42.37,2.91.57,4.45.57,9.64,0,17.45-7.81,17.45-17.45ZM123.58,92.66c0,9.64,7.81,17.45,17.45,17.45,1.72,0,3.38-.25,4.95-.72.05-.78.08-1.57.08-2.36,0-11.82-5.18-22.43-13.39-29.7-5.42,2.96-9.09,8.71-9.09,15.32ZM145.43,114.04c-3.4-1.8-7.27-2.83-11.39-2.83-13.43,0-24.32,10.89-24.32,24.32,0,3.85.9,7.49,2.49,10.73,16.85-2.47,30.24-15.54,33.22-32.23ZM78.16,111.21c-3.89,0-7.57.92-10.83,2.54,2.84,16.63,16.03,29.73,32.71,32.42,1.57-3.22,2.45-6.83,2.45-10.64,0-13.43-10.89-24.32-24.32-24.32Z"/>
  </g>
  <g>
    <path class="cls-2" d="M281.17,150.66c-.71,0-1.1,0-1.48,0-7.7,0-15.39-.03-23.09.03-1.14,0-1.78-.4-2.35-1.28-2.05-3.15-4.11-6.29-6.2-9.41-3.61-5.39-7.24-10.76-10.85-16.14-2.42-3.61-4.81-7.24-7.21-10.86-1.07-1.62-2.14-3.23-3.22-4.85-.41-.62-.83-.44-1.27,0-2.39,2.43-4.8,4.85-7.19,7.28-1.23,1.25-2.44,2.53-3.7,3.75-.51.49-.73,1-.73,1.71.02,9.53,0,19.05.04,28.58,0,.96-.29,1.22-1.22,1.21-6.13-.04-12.26-.02-18.39-.02-1.28,0-1.27,0-1.27-1.32,0-31.06,0-62.11-.02-93.17,0-.87.23-1.12,1.08-1.11,6.23.03,12.46.03,18.69,0,.83,0,1.14.21,1.13,1.09-.03,12.43-.03,24.86-.02,37.29,0,.32.19.63.29.95.3-.15.68-.22.9-.46,5.71-6.08,11.39-12.19,17.1-18.27,5.96-6.34,11.95-12.65,17.93-18.98.27-.28.51-.59.76-.89.44-.54.98-.75,1.7-.75,7.93.02,15.85.01,23.78.02.27,0,.55.04.82.07.08.11.15.22.23.33-1.27,1.18-2.59,2.31-3.81,3.54-5.11,5.13-10.2,10.28-15.29,15.43-5.14,5.2-10.27,10.4-15.4,15.6-.68.69-1.36,1.38-2.07,2.05-.44.42-.56.78-.16,1.34,2.33,3.23,4.64,6.48,6.94,9.73,2.08,2.94,4.12,5.91,6.19,8.85,2.67,3.79,5.37,7.56,8.05,11.35,2.9,4.1,5.77,8.22,8.68,12.33,2.88,4.07,5.79,8.13,8.69,12.2.59.83,1.18,1.67,1.95,2.77Z"/>
    <path class="cls-2" d="M433.63,153.16c-1.76,0-3.52-.03-5.28,0-2.63.06-5.18-.35-7.74-.87-3.72-.75-7.25-1.97-10.61-3.69-4.49-2.31-8.29-5.45-11.16-9.62-2.04-2.97-3.27-6.3-4.01-9.83-.66-3.13-.76-6.31-.41-9.44.65-5.89,3.04-11.02,7.52-15.05,3.51-3.15,7.53-5.41,12.02-6.78,4.9-1.49,9.85-2.82,14.78-4.23,2.34-.67,4.67-1.36,7-2.05,2.91-.87,5.84-1.69,8.73-2.65,2.58-.86,4.86-2.21,6.07-4.82,1.32-2.87,1.08-5.73-.39-8.45-1.73-3.18-4.68-4.68-8.06-5.58-3.61-.96-7.25-.82-10.87-.28-3.73.56-7.24,1.79-9.93,4.67-2.15,2.3-3.25,5.06-3.59,8.14-.12,1.04-.51,1.31-1.53,1.3-5.81-.05-11.61-.02-17.42-.03-1.25,0-1.25,0-1.21-1.26.13-3.91.84-7.7,2.43-11.28,2.43-5.46,6.45-9.46,11.59-12.43,3.38-1.95,6.98-3.36,10.77-4.13,6.5-1.32,13.05-2.06,19.71-1.01,3.25.51,6.47,1.12,9.55,2.28,3.38,1.27,6.55,2.95,9.44,5.16,2.79,2.13,5.19,4.62,6.94,7.66,1.41,2.45,2.57,5.04,2.84,7.9.23,2.45.55,4.93.44,7.38-.32,7.42-3.68,13.22-9.7,17.56-3.35,2.42-7.13,3.8-11.04,4.93-2.9.84-5.77,1.77-8.67,2.62-2.7.79-5.43,1.51-8.13,2.3-4.41,1.3-8.93,2.32-12.95,4.69-2.35,1.38-4.48,3.01-5.64,5.58-.9,2.02-.98,4.08-.44,6.26.97,3.91,3.67,6.04,7.16,7.46,5.23,2.14,10.65,2.46,16.2,1.69,3.76-.52,7.27-1.68,10.3-4.01,3.27-2.52,5.29-5.84,5.89-9.97.12-.83.3-1.67.32-2.51.01-.8.28-1.06,1.09-1.06,5.51.03,11.02.02,16.54.02,2.16,0,2.07,0,2.18,2.14.17,3.28-.43,6.46-1.48,9.5-1.61,4.62-4.25,8.63-7.94,11.93-2.81,2.52-5.91,4.57-9.33,6.08-2.18.96-4.5,1.64-6.78,2.38-4.95,1.62-10.08,1.45-15.19,1.37Z"/>
    <path class="cls-2" d="M383.31,102.48c0,15.59,0,31.19.02,46.78,0,.85-.32,1.08-1.08,1.08-5.22-.01-10.44-.01-15.66,0-.79,0-1.15-.16-1.09-1.12.12-1.79.04-3.59.05-5.38,0-.42.08-.85.06-1.27-.01-.28-.14-.56-.22-.84-.28.16-.64.25-.83.48-.72.91-1.33,1.92-2.09,2.8-2.85,3.31-6.53,5.23-10.72,6.33-3.74.99-7.55,1.12-11.33.73-7.65-.79-14.04-4.14-18.88-10.22-2.75-3.45-4.91-7.27-6.16-11.48-.92-3.06-1.48-6.26-1.88-9.44-.35-2.8-.42-5.66-.32-8.48.13-3.74.75-7.42,1.87-11.02.95-3.06,2.23-5.95,3.96-8.61,2.53-3.9,5.61-7.25,9.68-9.66,2.37-1.4,4.87-2.52,7.5-3.06,4.32-.9,8.7-1.03,13.11-.27,3.5.6,6.65,1.88,9.5,3.94,1.9,1.38,3.55,3.01,4.8,5.03.16.25.55.36.83.53.11-.27.33-.54.33-.81,0-10.86,0-21.73-.04-32.59,0-.92.21-1.24,1.18-1.23,5.45.04,10.89.03,16.34,0,.75,0,1.11.14,1.1,1.01-.02,15.59-.02,31.19-.02,46.78h-.01ZM331.84,115.21c-.17,6.04,1.07,11.44,4.34,16.26,2.93,4.31,6.92,6.75,12.24,6.65,1.42-.03,2.84-.18,4.24-.39,4.45-.66,7.51-3.25,9.64-7.1,1.87-3.37,2.54-7.07,2.87-10.83.38-4.3.24-8.58-.75-12.82-.77-3.29-1.96-6.36-4.25-8.92-2.11-2.36-4.72-3.86-7.81-4.39-2.1-.36-4.22-.53-6.4-.13-1.98.36-3.87.86-5.57,1.91-4.04,2.49-6.17,6.39-7.45,10.76-.88,3-1.28,6.12-1.1,8.99Z"/>
    <path class="cls-2" d="M305.89,89.44c0,11.12-.01,22.24.02,33.36,0,.93-.23,1.22-1.19,1.22-5.38-.05-10.76-.02-16.14-.02-1.39,0-1.34,0-1.33-1.39.02-5.38.01-10.76.01-16.14,0-16.31,0-32.61,0-48.92,0-.42.01-.85,0-1.27-.06-1.34-.04-1.37,1.27-1.37,5.41,0,10.83.01,16.24-.02.92,0,1.15.32,1.15,1.2-.03,11.12-.02,22.24-.02,33.36Z"/>
    <path class="cls-2" d="M296.62,135.14c2.74,0,5.48.02,8.21-.01.79-.01,1.08.22,1.07,1.05-.03,4.47-.03,8.93,0,13.4,0,.76-.22,1.01-1,1.01-5.51-.03-11.02-.01-16.52-.02-1.15,0-1.15-.08-1.15-1.24.02-4.37.03-8.74-.03-13.1-.01-.84.2-1.1,1.01-1.09,2.8.03,5.61.01,8.41.01Z"/>
  </g>
</svg>