<?xml version="1.0" encoding="UTF-8"?>
<svg id="Layer_1" data-name="Layer 1" xmlns="http://www.w3.org/2000/svg" viewBox="0 0 534.46 197.18">
  <defs>
    <style>
      .cls-1 {
        fill: #58595b;
      }

      .cls-2 {
        fill: #231f20;
      }

      .cls-3 {
        fill: #414042;
      }
    </style>
  </defs>
  <g>
    <path class="cls-2" d="M109.53,67.38c-8.86,0-17.04,2.91-23.64,7.81-1.75-3.51-2.73-7.47-2.73-11.66,0-14.48,11.74-26.22,26.22-26.22s26.22,11.74,26.22,26.22c0,4.12-.96,8.02-2.65,11.5-6.56-4.81-14.65-7.65-23.41-7.65ZM83.07,77.51c-2.55-1.46-5.51-2.3-8.66-2.3-9.64,0-17.45,7.81-17.45,17.45,0,8.1,5.52,14.91,13,16.88-.05-.83-.09-1.66-.09-2.5,0-11.73,5.1-22.27,13.19-29.53ZM149.19,107.03c0,.79-.03,1.58-.08,2.36,7.23-2.13,12.5-8.82,12.5-16.74,0-9.64-7.81-17.45-17.45-17.45-3.03,0-5.88.77-8.36,2.13,8.21,7.27,13.39,17.87,13.39,29.7ZM148.56,114.04c-2.97,16.68-16.37,29.75-33.22,32.23,3.97,8.05,12.25,13.59,21.83,13.59,13.43,0,24.32-10.89,24.32-24.32,0-9.32-5.24-17.41-12.94-21.5ZM70.45,113.75c-8,3.98-13.49,12.24-13.49,21.78,0,13.43,10.89,24.32,24.32,24.32,9.62,0,17.93-5.58,21.88-13.68-16.68-2.69-29.87-15.79-32.71-32.42Z"/>
    <path class="cls-1" d="M137.17,111.21c4.11,0,7.99,1.03,11.39,2.83.27-1.52.46-3.07.55-4.64-1.57.46-3.23.72-4.95.72-9.64,0-17.45-7.81-17.45-17.45,0-6.61,3.67-12.36,9.09-15.32-.92-.81-1.87-1.58-2.86-2.31-4.26,8.72-13.21,14.72-23.56,14.72s-19.19-5.93-23.48-14.56c-.98.73-1.92,1.5-2.83,2.31,5.25,3.01,8.8,8.66,8.8,15.15,0,9.64-7.81,17.45-17.45,17.45-1.54,0-3.03-.2-4.45-.57.09,1.43.26,2.83.49,4.22,3.26-1.63,6.94-2.54,10.83-2.54,13.43,0,24.32,10.89,24.32,24.32,0,3.82-.88,7.43-2.45,10.64,2.07.34,4.2.52,6.37.52,1.97,0,3.91-.15,5.81-.43-1.59-3.24-2.49-6.88-2.49-10.73,0-13.43,10.89-24.32,24.32-24.32Z"/>
    <path class="cls-3" d="M85.89,75.19c6.6-4.91,14.78-7.81,23.64-7.81s16.85,2.84,23.41,7.65c-4.26,8.72-13.21,14.72-23.56,14.72s-19.19-5.93-23.48-14.56ZM91.86,92.66c0-6.49-3.54-12.14-8.8-15.15-8.1,7.26-13.19,17.8-13.19,29.53,0,.84.03,1.67.09,2.5,1.42.37,2.91.57,4.45.57,9.64,0,17.45-7.81,17.45-17.45ZM126.71,92.66c0,9.64,7.81,17.45,17.45,17.45,1.72,0,3.38-.25,4.95-.72.05-.78.08-1.57.08-2.36,0-11.82-5.18-22.43-13.39-29.7-5.42,2.96-9.09,8.71-9.09,15.32ZM148.56,114.04c-3.4-1.8-7.27-2.83-11.39-2.83-13.43,0-24.32,10.89-24.32,24.32,0,3.85.9,7.49,2.49,10.73,16.85-2.47,30.24-15.54,33.22-32.23ZM81.28,111.21c-3.89,0-7.57.92-10.83,2.54,2.84,16.63,16.03,29.73,32.71,32.42,1.57-3.22,2.45-6.83,2.45-10.64,0-13.43-10.89-24.32-24.32-24.32Z"/>
  </g>
  <g>
    <path class="cls-2" d="M284.29,150.66c-.71,0-1.1,0-1.48,0-7.7,0-15.39-.03-23.09.03-1.14,0-1.78-.4-2.35-1.28-2.05-3.15-4.11-6.29-6.2-9.41-3.61-5.39-7.24-10.76-10.85-16.14-2.42-3.61-4.81-7.24-7.21-10.86-1.07-1.62-2.14-3.23-3.22-4.85-.41-.62-.83-.44-1.27,0-2.39,2.43-4.8,4.85-7.19,7.28-1.23,1.25-2.44,2.53-3.7,3.75-.51.49-.73,1-.73,1.71.02,9.53,0,19.05.04,28.58,0,.96-.29,1.22-1.22,1.21-6.13-.04-12.26-.02-18.39-.02-1.28,0-1.27,0-1.27-1.32,0-31.06,0-62.11-.02-93.17,0-.87.23-1.12,1.08-1.11,6.23.03,12.46.03,18.69,0,.83,0,1.14.21,1.13,1.09-.03,12.43-.03,24.86-.02,37.29,0,.32.19.63.29.95.3-.15.68-.22.9-.46,5.71-6.08,11.39-12.19,17.1-18.27,5.96-6.34,11.95-12.65,17.93-18.98.27-.28.51-.59.76-.89.44-.54.98-.75,1.7-.75,7.93.02,15.85.01,23.78.02.27,0,.55.04.82.07.08.11.15.22.23.33-1.27,1.18-2.59,2.31-3.81,3.54-5.11,5.13-10.2,10.28-15.29,15.43-5.14,5.2-10.27,10.4-15.4,15.6-.68.69-1.36,1.38-2.07,2.05-.44.42-.56.78-.16,1.34,2.33,3.23,4.64,6.48,6.94,9.73,2.08,2.94,4.12,5.91,6.19,8.85,2.67,3.79,5.37,7.56,8.05,11.35,2.9,4.1,5.77,8.22,8.68,12.33,2.88,4.07,5.79,8.13,8.69,12.2.59.83,1.18,1.67,1.95,2.77Z"/>
    <path class="cls-2" d="M436.76,153.16c-1.76,0-3.52-.03-5.28,0-2.63.06-5.18-.35-7.74-.87-3.72-.75-7.25-1.97-10.61-3.69-4.49-2.31-8.29-5.45-11.16-9.62-2.04-2.97-3.27-6.3-4.01-9.83-.66-3.13-.76-6.31-.41-9.44.65-5.89,3.04-11.02,7.52-15.05,3.51-3.15,7.53-5.41,12.02-6.78,4.9-1.49,9.85-2.82,14.78-4.23,2.34-.67,4.67-1.36,7-2.05,2.91-.87,5.84-1.69,8.73-2.65,2.58-.86,4.86-2.21,6.07-4.82,1.32-2.87,1.08-5.73-.39-8.45-1.73-3.18-4.68-4.68-8.06-5.58-3.61-.96-7.25-.82-10.87-.28-3.73.56-7.24,1.79-9.93,4.67-2.15,2.3-3.25,5.06-3.59,8.14-.12,1.04-.51,1.31-1.53,1.3-5.81-.05-11.61-.02-17.42-.03-1.25,0-1.25,0-1.21-1.26.13-3.91.84-7.7,2.43-11.28,2.43-5.46,6.45-9.46,11.59-12.43,3.38-1.95,6.98-3.36,10.77-4.13,6.5-1.32,13.05-2.06,19.71-1.01,3.25.51,6.47,1.12,9.55,2.28,3.38,1.27,6.55,2.95,9.44,5.16,2.79,2.13,5.19,4.62,6.94,7.66,1.41,2.45,2.57,5.04,2.84,7.9.23,2.45.55,4.93.44,7.38-.32,7.42-3.68,13.22-9.7,17.56-3.35,2.42-7.13,3.8-11.04,4.93-2.9.84-5.77,1.77-8.67,2.62-2.7.79-5.43,1.51-8.13,2.3-4.41,1.3-8.93,2.32-12.95,4.69-2.35,1.38-4.48,3.01-5.64,5.58-.9,2.02-.98,4.08-.44,6.26.97,3.91,3.67,6.04,7.16,7.46,5.23,2.14,10.65,2.46,16.2,1.69,3.76-.52,7.27-1.68,10.3-4.01,3.27-2.52,5.29-5.84,5.89-9.97.12-.83.3-1.67.32-2.51.01-.8.28-1.06,1.09-1.06,5.51.03,11.02.02,16.54.02,2.16,0,2.07,0,2.18,2.14.17,3.28-.43,6.46-1.48,9.5-1.61,4.62-4.25,8.63-7.94,11.93-2.81,2.52-5.91,4.57-9.33,6.08-2.18.96-4.5,1.64-6.78,2.38-4.95,1.62-10.08,1.45-15.19,1.37Z"/>
    <path class="cls-2" d="M386.43,102.48c0,15.59,0,31.19.02,46.78,0,.85-.32,1.08-1.08,1.08-5.22-.01-10.44-.01-15.66,0-.79,0-1.15-.16-1.09-1.12.12-1.79.04-3.59.05-5.38,0-.42.08-.85.06-1.27-.01-.28-.14-.56-.22-.84-.28.16-.64.25-.83.48-.72.91-1.33,1.92-2.09,2.8-2.85,3.31-6.53,5.23-10.72,6.33-3.74.99-7.55,1.12-11.33.73-7.65-.79-14.04-4.14-18.88-10.22-2.75-3.45-4.91-7.27-6.16-11.48-.92-3.06-1.48-6.26-1.88-9.44-.35-2.8-.42-5.66-.32-8.48.13-3.74.75-7.42,1.87-11.02.95-3.06,2.23-5.95,3.96-8.61,2.53-3.9,5.61-7.25,9.68-9.66,2.37-1.4,4.87-2.52,7.5-3.06,4.32-.9,8.7-1.03,13.11-.27,3.5.6,6.65,1.88,9.5,3.94,1.9,1.38,3.55,3.01,4.8,5.03.16.25.55.36.83.53.11-.27.33-.54.33-.81,0-10.86,0-21.73-.04-32.59,0-.92.21-1.24,1.18-1.23,5.45.04,10.89.03,16.34,0,.75,0,1.11.14,1.1,1.01-.02,15.59-.02,31.19-.02,46.78h-.01ZM334.96,115.21c-.17,6.04,1.07,11.44,4.34,16.26,2.93,4.31,6.92,6.75,12.24,6.65,1.42-.03,2.84-.18,4.24-.39,4.45-.66,7.51-3.25,9.64-7.1,1.87-3.37,2.54-7.07,2.87-10.83.38-4.3.24-8.58-.75-12.82-.77-3.29-1.96-6.36-4.25-8.92-2.11-2.36-4.72-3.86-7.81-4.39-2.1-.36-4.22-.53-6.4-.13-1.98.36-3.87.86-5.57,1.91-4.04,2.49-6.17,6.39-7.45,10.76-.88,3-1.28,6.12-1.1,8.99Z"/>
    <path class="cls-2" d="M309.01,89.44c0,11.12-.01,22.24.02,33.36,0,.93-.23,1.22-1.19,1.22-5.38-.05-10.76-.02-16.14-.02-1.39,0-1.34,0-1.33-1.39.02-5.38.01-10.76.01-16.14,0-16.31,0-32.61,0-48.92,0-.42.01-.85,0-1.27-.06-1.34-.04-1.37,1.27-1.37,5.41,0,10.83.01,16.24-.02.92,0,1.15.32,1.15,1.2-.03,11.12-.02,22.24-.02,33.36Z"/>
    <path class="cls-2" d="M299.75,135.14c2.74,0,5.48.02,8.21-.01.79-.01,1.08.22,1.07,1.05-.03,4.47-.03,8.93,0,13.4,0,.76-.22,1.01-1,1.01-5.51-.03-11.02-.01-16.52-.02-1.15,0-1.15-.08-1.15-1.24.02-4.37.03-8.74-.03-13.1-.01-.84.2-1.1,1.01-1.09,2.8.03,5.61.01,8.41.01Z"/>
  </g>
</svg>